<?xml version="1.0" encoding="UTF-8"?>
<svg id="Layer_1" xmlns="http://www.w3.org/2000/svg" viewBox="0 0 1080 380.6">
  <defs>
    <style>
      .cls-1 {
        fill: #fff;
      }
    </style>
  </defs>
  <path class="cls-1" d="M72.48,211.58v-91.22l-59.89-30.97c-3.82-1.9-8.33.79-8.33,5.03v129.28c0,5.12,2.86,9.72,7.46,12.06l109.19,56.31c3.82,1.9,8.24-.79,8.24-5.03v-38.06l-49.64-25.6c-7.03-5.19-7.03-10.89-7.03-11.8Z"/>
  <path class="cls-1" d="M165.53,215.71V71.85L80.82,28.04c-3.82-2-8.33.78-8.33,5.12v87.29l49.38,25.51c4.51,2.34,7.29,7.03,7.29,12.15v90.96l84.8,43.64c3.82,1.9,8.33-.87,8.33-5.12v-34.65l-49.64-25.6c-4.43-2.26-7.12-6.77-7.12-11.63Z"/>
  <path class="cls-1" d="M299.55,72.45L173.86,7.56c-3.82-2-8.33.79-8.33,5.12v59.17l49.65,25.68c4.34,2.26,7.11,6.68,7.11,11.54v143.85l76.12,39.22c3.82,1.9,8.42-.87,8.42-5.12V84.34c0-5.03-2.87-9.63-7.29-11.89Z"/>
  <path class="cls-1" d="M555.28,27.38v20.46l56.77,30.61V27.38h-56.77Z"/>
  <path class="cls-1" d="M445.98,130.31h.8c2.74-6.46,6.39-12.46,11.06-17.99,4.63-5.52,9.93-10.24,15.93-14.17,6-3.89,12.39-6.94,19.2-9.1,6.81-2.16,13.9-3.23,21.27-3.23,3.83,0,8.04.66,12.67,2.01v53.38c-2.74-.52-6-1.01-9.83-1.42-3.83-.42-7.51-.59-11.06-.59-10.63,0-19.62,1.77-26.99,5.25-7.37,3.51-13.3,8.3-17.79,14.38-4.49,6.07-7.69,13.16-9.62,21.22-1.9,8.1-2.87,16.84-2.87,26.29v86.99h-56.77V88.74h38.4l15.6,41.57Z"/>
  <path class="cls-1" d="M555.29,88.74v204.57h56.76V88.74h-56.76Z"/>
  <path class="cls-1" d="M640.45,88.74h55.65l51.97,138.33h.8l51.99-138.33h55.65l-76.85,204.57h-62.33l-76.88-204.57Z"/>
  <path class="cls-1" d="M990.66,170.06l-20.22,53.83h-.65l-14.81-39.57-35.81-95.61h-55.65l63.81,169.19,8.54,22.61c.22.51.4.99.57,1.5,1.26,3.61,1.89,7.4,1.89,11.41,0,6.19-1.83,11.85-5.52,16.98-1.83,2.56-4.14,4.58-6.97,6.08,0,.1-5.73,2.68-9.99,2.82-3.85.13-7.7.13-11.57-.05,0,.05-5.06-.31-5.55-.35-.62-.05-1.26-.13-1.89-.19l-17.15,45.63c3.85.38,9.96.94,13.76,1.2,2.1.16,4.17.29,6.28.46,5.87.38,11.79.59,17.8.59,16.16,0,29.4-2.42,39.8-7.18,2.84-1.3,5.2-2.72,6.75-3.72,2.8-1.8,5.44-3.93,7.91-6.35,1.94-1.91,6.36-6.2,8.62-10.55,3.66-5.57,6.86-12.06,9.61-19.49l86.68-230.61h-55.65l-30.57,81.35Z"/>
  <path class="cls-1" d="M397.52,352.19v14.87h-5.54v-36.11h24.08v5.24h-18.54v10.77h16.55v5.24h-16.55ZM432.98,367.78c-8.97,0-14.33-5.72-14.33-14.87s5.78-14.69,14.33-14.69,14.21,5.42,14.21,14.69-5.36,14.87-14.21,14.87ZM432.92,343.04c-5.6,0-9.03,3.79-9.03,9.81s3.19,10.11,9.03,10.11,9.03-4.09,9.03-10.11-3.43-9.81-9.03-9.81ZM456.93,338.95v8.67h.12c1.14-6.5,3.79-8.67,8.31-8.67h1.75v5.78h-2.53c-5.3,0-7.64,1.99-7.64,7.46v14.87h-5.24v-28.11h5.24ZM475.71,338.95v7.58h.06c1.2-5.72,4.94-8.31,9.81-8.31,6.44,0,9.15,3.73,9.69,8.79h.12c.96-6.02,4.28-8.79,9.75-8.79,7.4,0,9.93,4.82,9.93,10.83v18h-5.24v-16.67c0-3.85-1.68-7.4-6.74-7.4s-7.7,2.77-7.7,7.4v16.67h-5.24v-16.67c0-3.85-1.69-7.4-6.74-7.4s-7.7,2.77-7.7,7.4v16.67h-5.24v-28.11h5.24ZM533.64,367.72c-8.67,0-14.33-5.3-14.33-14.51s5.72-14.99,14.27-14.99,12.88,5.36,12.88,13.06c0,.96-.06,2.11-.12,3.37h-21.73c.48,5.54,3.73,8.49,9.03,8.49s7.04-2.59,8-5.9l4.64,1.38c-1.45,5.54-5.48,9.09-12.64,9.09ZM524.67,350.57h16.91c-.42-5.06-2.95-7.82-8.19-7.82-4.82,0-8.01,2.59-8.73,7.82ZM556.18,338.95v8.67h.12c1.14-6.5,3.79-8.67,8.31-8.67h1.75v5.78h-2.53c-5.29,0-7.64,1.99-7.64,7.46v14.87h-5.23v-28.11h5.23ZM569.72,330.16h5.23v36.9h-5.23v-36.9ZM589.94,366.64l-11.91-27.69h5.72l3.97,10.05c1.26,3.43,3.31,8.43,4.93,12.7h.12c1.5-4.33,3.43-9.09,4.63-12.64l3.61-10.11h5.6l-11.86,28.47c-2.89,6.8-6.26,9.75-12.22,9.75-1.75,0-3.01-.18-4.21-.36l.78-5c1.2.24,2.35.42,3.55.42,3.37,0,5.12-.78,7.28-5.6ZM633.79,353.4h-8.37v13.66h-5.54v-36.11h13.78c8,0,12.4,3.73,12.4,11.2,0,6.5-4.51,11.26-12.28,11.26ZM633.13,335.88h-7.71v12.58h7.82c4.76,0,7.16-2.11,7.16-6.26,0-4.39-2.17-6.32-7.28-6.32ZM656.84,367.66c-5.48,0-9.03-2.65-9.03-7.95,0-4.88,3.19-8.61,9.93-8.61h9.09v-1.5c0-4.39-1.62-6.8-6.14-6.8-4.04,0-6.26,1.87-7.05,6.5l-4.99-.72c.96-6.56,4.75-10.23,12.22-10.23s11.19,3.97,11.19,11.2v17.52h-5.23v-7.16h-.06c-1.26,5.24-5.06,7.76-9.93,7.76ZM666.83,356.59v-1.32h-8.37c-3.67,0-5.48,1.26-5.48,3.79,0,2.17,1.39,4.21,5.48,4.21,5.12,0,8.37-2.83,8.37-6.68ZM686.05,366.64l-11.92-27.69h5.72l3.97,10.05c1.27,3.43,3.31,8.43,4.94,12.7h.12c1.5-4.33,3.43-9.09,4.64-12.64l3.61-10.11h5.59l-11.86,28.47c-2.89,6.8-6.26,9.75-12.22,9.75-1.75,0-3.01-.18-4.21-.36l.78-5c1.2.24,2.35.42,3.55.42,3.37,0,5.12-.78,7.28-5.6ZM710.91,330.16v16.37h.06c1.2-5.72,4.94-8.31,9.81-8.31,7.34,0,9.81,4.82,9.81,10.83v18h-5.23v-16.67c0-3.85-1.69-7.4-6.74-7.4s-7.71,2.77-7.71,7.4v16.67h-5.23v-36.9h5.23ZM742.23,338.95v28.11h-5.24v-28.11h5.24ZM742.59,330.16v4.45h-5.96v-4.45h5.96ZM776.26,352.92c0,9.21-4.21,14.87-11.5,14.87-6.2,0-9.39-3.49-10.53-9.09h-.12v16.67h-5.23v-36.42h5.23v8.25h.12c1.2-5.6,4.51-8.97,10.47-8.97,7.64,0,11.55,5.6,11.55,14.69ZM754.11,352.73v.42c0,6.02,3.37,9.93,8.67,9.93s8.31-3.73,8.31-10.17-2.59-9.93-8.31-9.93c-5.29,0-8.67,3.49-8.67,9.75ZM808.21,352.92c0,9.21-4.21,14.87-11.5,14.87-6.2,0-9.39-3.49-10.53-9.09h-.12v16.67h-5.23v-36.42h5.23v8.25h.12c1.2-5.6,4.51-8.97,10.47-8.97,7.64,0,11.55,5.6,11.55,14.69ZM786.06,352.73v.42c0,6.02,3.37,9.93,8.67,9.93s8.31-3.73,8.31-10.17-2.59-9.93-8.31-9.93c-5.29,0-8.67,3.49-8.67,9.75ZM825.47,367.78c-8.97,0-14.32-5.72-14.32-14.87s5.78-14.69,14.32-14.69,14.2,5.42,14.2,14.69-5.35,14.87-14.2,14.87ZM825.41,343.04c-5.6,0-9.03,3.79-9.03,9.81s3.19,10.11,9.03,10.11,9.03-4.09,9.03-10.11-3.43-9.81-9.03-9.81Z"/>
</svg>