<svg width="130" height="101" viewBox="0 0 130 101" fill="none" xmlns="http://www.w3.org/2000/svg">
<g clip-path="url(#clip0_736_9291)">
<path d="M87.8708 61.3426C87.8708 65.5993 85.7745 69.0485 80.1649 69.0485C74.5552 69.0485 72.459 65.5993 72.459 61.3426C72.459 57.0859 75.0205 53.6367 80.1649 53.6367C85.3093 53.6367 87.8708 57.0859 87.8708 61.3426Z" fill="#0E2316" stroke="#0E2316" stroke-width="0.481283" stroke-miterlimit="10"/>
<path d="M74.1812 70.9517C76.5448 73.2726 77.3256 76.3153 74.2668 79.433C71.2079 82.5506 68.1491 81.8341 65.7855 79.5186C63.4218 77.1977 62.8978 73.8982 65.6999 71.0373C68.5021 68.1763 71.8176 68.6362 74.1812 70.9517Z" fill="#0E2316" stroke="#0E2316" stroke-width="0.481283" stroke-miterlimit="10"/>
<path d="M86.181 71.1558C84.3628 73.9258 84.2558 77.0649 87.9082 79.4606C91.5606 81.8563 94.3949 80.5034 96.213 77.7333C98.0312 74.9633 97.8334 71.6264 94.4858 69.4285C91.1382 67.2307 87.9991 68.3857 86.181 71.1558Z" fill="#0E2316" stroke="#0E2316" stroke-width="0.481283" stroke-miterlimit="10"/>
<path d="M80.1602 110.956V56.0312" stroke="#0E2316" stroke-width="0.481283" stroke-miterlimit="10"/>
<path d="M80.1602 92.0146L92.7056 72.0039" stroke="#0E2316" stroke-width="0.481283" stroke-miterlimit="10"/>
<path d="M80.1594 84.6259L67.9775 73.3906" stroke="#0E2316" stroke-width="0.481283" stroke-miterlimit="10"/>
<path d="M80.1592 60.4121L83.726 57.6367" stroke="#FBC56F" stroke-width="0.481283" stroke-linecap="round" stroke-linejoin="round"/>
<path d="M80.1591 60.4121L76.5977 57.6367" stroke="#FBC56F" stroke-width="0.481283" stroke-linecap="round" stroke-linejoin="round"/>
<path d="M80.1592 65.0435L83.726 62.2734" stroke="#FBC56F" stroke-width="0.481283" stroke-linecap="round" stroke-linejoin="round"/>
<path d="M80.1591 65.0435L76.5977 62.2734" stroke="#FBC56F" stroke-width="0.481283" stroke-linecap="round" stroke-linejoin="round"/>
<path d="M91.5596 73.8567L95.212 73.4609" stroke="#FBC56F" stroke-width="0.481283" stroke-linecap="round" stroke-linejoin="round"/>
<path d="M91.5588 73.8579L90.2754 70.4141" stroke="#FBC56F" stroke-width="0.481283" stroke-linecap="round" stroke-linejoin="round"/>
<path d="M89.5762 77.0715L93.2286 76.6758" stroke="#FBC56F" stroke-width="0.481283" stroke-linecap="round" stroke-linejoin="round"/>
<path d="M89.5754 77.0728L88.292 73.6289" stroke="#FBC56F" stroke-width="0.481283" stroke-linecap="round" stroke-linejoin="round"/>
<path d="M70.0314 75.2422L66.4004 75.8197" stroke="#FBC56F" stroke-width="0.481283" stroke-linecap="round" stroke-linejoin="round"/>
<path d="M70.0312 75.2412L70.3628 71.5781" stroke="#FBC56F" stroke-width="0.481283" stroke-linecap="round" stroke-linejoin="round"/>
<path d="M72.7853 77.8203L69.1543 78.3979" stroke="#FBC56F" stroke-width="0.481283" stroke-linecap="round" stroke-linejoin="round"/>
<path d="M72.7852 77.8194L73.1221 74.1562" stroke="#FBC56F" stroke-width="0.481283" stroke-linecap="round" stroke-linejoin="round"/>
<path d="M80.1602 69.05V55.5312" stroke="#FBC56F" stroke-width="0.481283" stroke-linecap="round" stroke-linejoin="round"/>
<path d="M74.3893 79.3051L67.9775 73.3906" stroke="#FBC56F" stroke-width="0.481283" stroke-linecap="round" stroke-linejoin="round"/>
<path d="M87.8926 79.6831L92.7054 72.0039" stroke="#FBC56F" stroke-width="0.481283" stroke-linecap="round" stroke-linejoin="round"/>
<path d="M28.7915 72.6154C28.7915 75.5352 27.353 77.8989 23.508 77.8989C19.6631 77.8989 18.2246 75.5352 18.2246 72.6154C18.2246 69.6957 19.9786 67.332 23.508 67.332C27.0374 67.332 28.7915 69.6957 28.7915 72.6154Z" fill="#FBC56F" stroke="#0E2316" stroke-width="0.481283" stroke-miterlimit="10"/>
<path d="M19.4007 79.2023C21.021 80.7905 21.5558 82.8815 19.4595 85.0151C17.3633 87.1488 15.267 86.6622 13.6467 85.074C12.0264 83.4857 11.6681 81.2184 13.5879 79.2611C15.5077 77.2986 17.7804 77.6141 19.4007 79.2023Z" fill="#FBC56F" stroke="#0E2316" stroke-width="0.481283" stroke-miterlimit="10"/>
<path d="M27.6308 79.342C26.3848 81.2404 26.31 83.3955 28.818 85.0372C31.326 86.6789 33.2672 85.7538 34.5132 83.8501C35.7592 81.9517 35.6255 79.6629 33.326 78.1549C31.0319 76.6522 28.8768 77.4383 27.6308 79.342Z" fill="#FBC56F" stroke="#0E2316" stroke-width="0.481283" stroke-miterlimit="10"/>
<path d="M23.502 106.63V68.9727" stroke="#0E2316" stroke-width="0.481283" stroke-miterlimit="10"/>
<path d="M23.502 93.6424L32.1062 79.9258" stroke="#0E2316" stroke-width="0.481283" stroke-miterlimit="10"/>
<path d="M23.5024 88.577L15.1494 80.8711" stroke="#0E2316" stroke-width="0.481283" stroke-miterlimit="10"/>
<path d="M23.5029 71.9726L25.9468 70.0742" stroke="#0E2316" stroke-width="0.481283" stroke-miterlimit="10"/>
<path d="M23.503 71.9726L21.0645 70.0742" stroke="#0E2316" stroke-width="0.481283" stroke-miterlimit="10"/>
<path d="M23.5029 75.1484L25.9468 73.25" stroke="#0E2316" stroke-width="0.481283" stroke-miterlimit="10"/>
<path d="M23.503 75.1484L21.0645 73.25" stroke="#0E2316" stroke-width="0.481283" stroke-miterlimit="10"/>
<path d="M31.3213 81.1907L33.824 80.918" stroke="#0E2316" stroke-width="0.481283" stroke-miterlimit="10"/>
<path d="M31.3208 81.1918L30.4385 78.8281" stroke="#0E2316" stroke-width="0.481283" stroke-miterlimit="10"/>
<path d="M29.957 83.3938L32.4651 83.1211" stroke="#0E2316" stroke-width="0.481283" stroke-miterlimit="10"/>
<path d="M29.9571 83.3949L29.0801 81.0312" stroke="#0E2316" stroke-width="0.481283" stroke-miterlimit="10"/>
<path d="M16.556 82.1406L14.0693 82.5363" stroke="#0E2316" stroke-width="0.481283" stroke-miterlimit="10"/>
<path d="M16.5557 82.1408L16.7856 79.6328" stroke="#0E2316" stroke-width="0.481283" stroke-miterlimit="10"/>
<path d="M18.449 83.9102L15.957 84.3059" stroke="#0E2316" stroke-width="0.481283" stroke-miterlimit="10"/>
<path d="M18.4492 83.9104L18.6792 81.4023" stroke="#0E2316" stroke-width="0.481283" stroke-miterlimit="10"/>
<path d="M23.502 77.8977V68.625" stroke="#0E2316" stroke-width="0.481283" stroke-miterlimit="10"/>
<path d="M19.5451 84.9246L15.1494 80.8711" stroke="#0E2316" stroke-width="0.481283" stroke-miterlimit="10"/>
<path d="M28.8076 85.1878L32.1071 79.9258" stroke="#0E2316" stroke-width="0.481283" stroke-miterlimit="10"/>
<path d="M69.0645 52.0391H54.2891V140.237H69.0645V52.0391Z" fill="#0E2316"/>
<path d="M63.1494 52.0391H50.5879V140.237H63.1494V52.0391Z" fill="#FBC56F" stroke="#0E2316" stroke-width="0.481283" stroke-miterlimit="10"/>
<path d="M31.6948 0.417969H126.053L94.6039 47.5998H0.240234L31.6948 0.417969Z" fill="#FBC56F" stroke="#0E2316" stroke-width="0.481283" stroke-linecap="round" stroke-linejoin="round"/>
<path d="M94.6039 47.6016H0.240234L3.19745 51.6283C4.96751 54.0401 7.78034 55.4625 10.7696 55.4625H100.374L94.6039 47.6016Z" fill="#FBC56F" stroke="#0E2316" stroke-width="0.481283" stroke-linecap="round" stroke-linejoin="round"/>
<path d="M127.937 2.98481L126.054 0.417969L94.5996 47.5998L100.37 55.4607L128.177 13.7442C130.364 10.4607 130.268 6.16128 127.937 2.97947V2.98481Z" fill="#0E2316" stroke="#0E2316" stroke-width="0.481283" stroke-miterlimit="10"/>
<path d="M31.6948 0.417969L0.240234 47.5998" stroke="#0E2316" stroke-width="0.481283" stroke-linecap="round" stroke-linejoin="round"/>
<path d="M38.4331 0.417969L6.97852 47.5998" stroke="#0E2316" stroke-width="0.481283" stroke-linecap="round" stroke-linejoin="round"/>
<path d="M45.1762 0.417969L13.7217 47.5998" stroke="#0E2316" stroke-width="0.481283" stroke-linecap="round" stroke-linejoin="round"/>
<path d="M51.9135 0.417969L20.459 47.5998" stroke="#0E2316" stroke-width="0.481283" stroke-linecap="round" stroke-linejoin="round"/>
<path d="M58.6523 0.417969L27.2031 47.5998" stroke="#0E2316" stroke-width="0.481283" stroke-linecap="round" stroke-linejoin="round"/>
<path d="M65.395 0.417969L33.9404 47.5998" stroke="#0E2316" stroke-width="0.481283" stroke-linecap="round" stroke-linejoin="round"/>
<path d="M72.1333 0.417969L40.6787 47.5998" stroke="#0E2316" stroke-width="0.481283" stroke-linecap="round" stroke-linejoin="round"/>
<path d="M78.8764 0.417969L47.4219 47.5998" stroke="#0E2316" stroke-width="0.481283" stroke-linecap="round" stroke-linejoin="round"/>
<path d="M85.6147 0.417969L54.1602 47.5998" stroke="#0E2316" stroke-width="0.481283" stroke-linecap="round" stroke-linejoin="round"/>
<path d="M92.3525 0.417969L60.9033 47.5998" stroke="#0E2316" stroke-width="0.481283" stroke-linecap="round" stroke-linejoin="round"/>
<path d="M99.0961 0.417969L67.6416 47.5998" stroke="#0E2316" stroke-width="0.481283" stroke-linecap="round" stroke-linejoin="round"/>
<path d="M105.833 0.417969L74.3789 47.5998" stroke="#0E2316" stroke-width="0.481283" stroke-linecap="round" stroke-linejoin="round"/>
<path d="M112.578 0.417969L81.123 47.5998" stroke="#0E2316" stroke-width="0.481283" stroke-linecap="round" stroke-linejoin="round"/>
<path d="M119.315 0.417969L87.8604 47.5998" stroke="#0E2316" stroke-width="0.481283" stroke-linecap="round" stroke-linejoin="round"/>
<path d="M126.053 0.417969L94.6035 47.5998" stroke="#0E2316" stroke-width="0.481283" stroke-linecap="round" stroke-linejoin="round"/>
<path d="M48.2465 26.2418C42.5781 30.5466 34.669 31.1829 30.5781 27.6535C30.423 27.5145 30.2733 27.3808 30.1289 27.2364L29.5567 26.5733L27.6797 24.4182C27.8562 24.6054 28.0433 24.7872 28.2465 24.9583C28.439 25.1241 28.6369 25.2792 28.8508 25.4289C29.5086 25.8942 30.2358 26.2632 31.0326 26.5466C31.0701 26.5626 31.1021 26.5733 31.1396 26.584C35.439 28.076 41.3909 26.9744 45.915 23.5412C49.6743 20.6856 51.5032 16.937 51.1128 13.7017C51.0273 12.969 50.8241 12.2578 50.5032 11.5947C50.2786 11.1241 49.9898 10.6749 49.6476 10.2578L51.6476 12.5787L52.0647 13.0653L52.0754 13.0813C54.9257 16.7124 53.4016 22.3166 48.2465 26.2364V26.2418Z" fill="#0E2316" stroke="#0E2316" stroke-width="0.481283" stroke-miterlimit="10"/>
<path d="M45.9098 23.5471C41.3857 26.9803 35.4339 28.0765 31.1344 26.5899C31.097 26.5792 31.0649 26.5632 31.0275 26.5525C30.236 26.269 29.5034 25.8947 28.8456 25.4348C28.6371 25.2904 28.4339 25.13 28.2414 24.9642C28.0381 24.7878 27.851 24.6113 27.6745 24.4241L27.6317 24.376L27.4232 24.1354L27.3537 24.0551C24.3857 20.4241 25.8884 14.745 31.097 10.7931C36.7654 6.4883 44.6745 5.85728 48.7654 9.38135C49.0007 9.58456 49.22 9.79846 49.4232 10.0231L49.6424 10.2744C49.99 10.6915 50.2734 11.1407 50.498 11.6113C50.8189 12.2744 51.0221 12.9803 51.1077 13.7182C51.498 16.9482 49.6692 20.7022 45.9098 23.5578V23.5471Z" fill="#FBC56F" stroke="#0E2316" stroke-width="0.481283" stroke-linecap="round" stroke-linejoin="round"/>
<path d="M35.2471 24.6258C34.0545 24.6258 32.9583 24.4547 31.985 24.1178L31.8995 24.0857C31.3219 23.8825 30.8032 23.6151 30.3487 23.2942C30.1989 23.1926 30.0706 23.091 29.9476 22.9841C29.8192 22.8718 29.6962 22.7595 29.5839 22.6365L29.3968 22.4226L29.3594 22.3798C28.6374 21.4868 28.3433 20.3958 28.493 19.1392C28.7497 16.968 30.2738 14.6793 32.6749 12.8557C35.3219 10.845 38.6321 9.69531 41.7604 9.69531C43.9476 9.69531 45.8299 10.2782 47.0652 11.3424C47.2096 11.4707 47.3487 11.6044 47.4716 11.7327L47.6481 11.9413C47.846 12.1819 48.0171 12.4493 48.1508 12.7274C48.3433 13.1285 48.4663 13.5563 48.5198 14.0055C48.8085 16.4279 47.2043 19.2782 44.3326 21.4654C41.6856 23.4761 38.3754 24.6258 35.2471 24.6258Z" fill="#FBC56F" stroke="#0E2316" stroke-width="0.481283" stroke-linecap="round" stroke-linejoin="round"/>
<path d="M47.0706 11.3541C45.8834 10.6482 44.3112 10.2632 42.5465 10.2632C39.4182 10.2632 36.108 11.4129 33.461 13.4236C31.0599 15.2418 29.5358 17.5359 29.2791 19.707C29.1294 20.9584 29.4235 22.0493 30.1454 22.9477L30.1829 22.9905L30.37 23.2044C30.4823 23.322 30.6 23.429 30.723 23.5413C30.5946 23.461 30.4716 23.3808 30.3487 23.3006C30.2043 23.199 30.0706 23.0974 29.9476 22.9905C29.8192 22.8782 29.6962 22.7659 29.5839 22.6482L29.3968 22.4343L29.3594 22.3915C28.6374 21.4985 28.3433 20.4076 28.493 19.1509C28.7497 16.9798 30.2738 14.691 32.6749 12.8675C35.3219 10.8568 38.6321 9.70703 41.7604 9.70703C43.9476 9.70703 45.8353 10.2899 47.0652 11.3541H47.0706Z" fill="#0E2316" stroke="#0E2316" stroke-width="0.481283" stroke-linecap="round" stroke-linejoin="round"/>
<path d="M34.3161 15.9961C34.2198 15.9961 34.1182 16.0656 34.0915 16.1512L33.1664 19.5843C33.1289 19.718 33.1877 19.841 33.3214 19.8945L36.4123 21.2635C36.4123 21.2635 36.4658 21.2795 36.4926 21.2795C36.5888 21.2795 36.6904 21.21 36.7118 21.1244L36.9578 20.21L35.5514 19.5897C35.4284 19.5362 35.3749 19.4186 35.407 19.2902L36.0861 16.7661L34.391 16.0121C34.391 16.0121 34.3375 15.9961 34.3107 15.9961" fill="#0E2316"/>
<path d="M36.9362 14.2852C36.8399 14.2852 36.733 14.3547 36.7116 14.4456L36.0859 16.7664L37.4817 17.3868C37.61 17.4456 37.6635 17.5632 37.626 17.7023L36.9469 20.2103L39.348 21.2691C39.348 21.2691 39.3961 21.2852 39.4282 21.2852C39.5244 21.2852 39.6314 21.2156 39.6528 21.1247L39.9255 20.1087L38.5191 19.4884C38.3961 19.4349 38.3426 19.3172 38.3747 19.1889L39.4068 15.3654L37.0111 14.3012C37.0111 14.3012 36.9576 14.2852 36.9309 14.2852" fill="#0E2316"/>
<path d="M40.0592 13.6328C39.9629 13.6328 39.8613 13.7023 39.8346 13.7932L39.4121 15.3654L40.8185 15.9911C40.9415 16.0446 41.0003 16.1622 40.9629 16.2906L39.9308 20.1141L42.0859 21.066C42.0859 21.066 42.134 21.082 42.1661 21.082C42.2624 21.082 42.3693 21.0125 42.3961 20.9216L43.8506 15.5366C43.888 15.4029 43.8292 15.2852 43.7009 15.2317L40.1447 13.6542C40.1447 13.6542 40.0913 13.6382 40.0645 13.6382" fill="#0E2316"/>
<path d="M89.4086 26.2418C83.7402 30.5466 75.8311 31.1829 71.7402 27.6535C71.5851 27.5145 71.4354 27.3808 71.291 27.2364L70.7188 26.5733L68.8418 24.4182C69.0183 24.6054 69.2054 24.7872 69.4086 24.9583C69.6012 25.1241 69.799 25.2792 70.0129 25.4289C70.6707 25.8942 71.3979 26.2632 72.1947 26.5466C72.2322 26.5626 72.2643 26.5733 72.3017 26.584C76.6012 28.076 82.553 26.9744 87.0771 23.5412C90.8365 20.6856 92.6653 16.937 92.275 13.7017C92.1894 12.969 91.9862 12.2578 91.6653 11.5947C91.4407 11.1241 91.152 10.6749 90.8097 10.2578L92.8097 12.5787L93.2268 13.0653L93.2375 13.0813C96.0878 16.7124 94.5637 22.3166 89.4086 26.2364V26.2418Z" fill="#0E2316" stroke="#0E2316" stroke-width="0.481283" stroke-miterlimit="10"/>
<path d="M87.0768 23.5471C82.5527 26.9803 76.6009 28.0765 72.3014 26.5899C72.264 26.5792 72.2319 26.5632 72.1944 26.5525C71.403 26.269 70.6704 25.8947 70.0126 25.4348C69.8041 25.2904 69.6009 25.13 69.4083 24.9642C69.2051 24.7878 69.018 24.6113 68.8415 24.4241L68.7987 24.376L68.5902 24.1354L68.5206 24.0551C65.5527 20.4241 67.0554 14.745 72.264 10.7931C77.9324 6.4883 85.8415 5.85728 89.9324 9.38135C90.1677 9.58456 90.387 9.79846 90.5902 10.0231L90.8094 10.2744C91.157 10.6915 91.4404 11.1407 91.665 11.6113C91.9859 12.2744 92.1891 12.9803 92.2747 13.7182C92.665 16.9482 90.8362 20.7022 87.0768 23.5578V23.5471Z" fill="#FBC56F" stroke="#0E2316" stroke-width="0.481283" stroke-linecap="round" stroke-linejoin="round"/>
<path d="M76.414 24.6258C75.2215 24.6258 74.1253 24.4547 73.152 24.1178L73.0665 24.0857C72.4889 23.8825 71.9702 23.6151 71.5156 23.2942C71.3659 23.1926 71.2376 23.091 71.1146 22.9841C70.9862 22.8718 70.8632 22.7595 70.7509 22.6365L70.5638 22.4226L70.5263 22.3798C69.8044 21.4868 69.5103 20.3958 69.66 19.1392C69.9167 16.968 71.4408 14.6793 73.8419 12.8557C76.4889 10.845 79.7991 9.69531 82.9274 9.69531C85.1146 9.69531 86.9969 10.2782 88.2322 11.3424C88.3766 11.4707 88.5156 11.6044 88.6386 11.7327L88.8151 11.9413C89.013 12.1819 89.1841 12.4493 89.3178 12.7274C89.5103 13.1285 89.6333 13.5563 89.6868 14.0055C89.9755 16.4279 88.3713 19.2782 85.4996 21.4654C82.8526 23.4761 79.5424 24.6258 76.414 24.6258Z" fill="#FBC56F" stroke="#0E2316" stroke-width="0.481283" stroke-linecap="round" stroke-linejoin="round"/>
<path d="M88.2376 11.3541C87.0504 10.6482 85.4782 10.2632 83.7135 10.2632C80.5852 10.2632 77.275 11.4129 74.628 13.4236C72.2269 15.2418 70.7028 17.5359 70.4461 19.707C70.2964 20.9584 70.5905 22.0493 71.3124 22.9477L71.3499 22.9905L71.537 23.2044C71.6493 23.322 71.767 23.429 71.89 23.5413C71.7616 23.461 71.6386 23.3808 71.5156 23.3006C71.3713 23.199 71.2376 23.0974 71.1146 22.9905C70.9862 22.8782 70.8632 22.7659 70.7509 22.6482L70.5638 22.4343L70.5263 22.3915C69.8044 21.4985 69.5103 20.4076 69.66 19.1509C69.9167 16.9798 71.4408 14.691 73.8419 12.8675C76.4889 10.8568 79.7991 9.70703 82.9274 9.70703C85.1146 9.70703 87.0023 10.2899 88.2322 11.3541H88.2376Z" fill="#0E2316" stroke="#0E2316" stroke-width="0.481283" stroke-linecap="round" stroke-linejoin="round"/>
<path d="M75.4772 15.9961C75.381 15.9961 75.2794 16.0656 75.2526 16.1512L74.3275 19.5843C74.2901 19.718 74.3489 19.841 74.4826 19.8945L77.5735 21.2635C77.5735 21.2635 77.627 21.2795 77.6537 21.2795C77.7499 21.2795 77.8515 21.21 77.8729 21.1244L78.1189 20.21L76.7125 19.5897C76.5895 19.5362 76.536 19.4186 76.5681 19.2902L77.2473 16.7661L75.5521 16.0121C75.5521 16.0121 75.4986 15.9961 75.4719 15.9961" fill="#0E2316"/>
<path d="M78.1032 14.2852C78.0069 14.2852 77.9 14.3547 77.8786 14.4456L77.2529 16.7664L78.6487 17.3868C78.777 17.4456 78.8305 17.5632 78.793 17.7023L78.1139 20.2103L80.515 21.2691C80.515 21.2691 80.5631 21.2852 80.5952 21.2852C80.6914 21.2852 80.7984 21.2156 80.8198 21.1247L81.0925 20.1087L79.6861 19.4884C79.5631 19.4349 79.5096 19.3172 79.5417 19.1889L80.5738 15.3654L78.1781 14.3012C78.1781 14.3012 78.1246 14.2852 78.0978 14.2852" fill="#0E2316"/>
<path d="M81.2262 13.6328C81.1299 13.6328 81.0283 13.7023 81.0016 13.7932L80.5791 15.3654L81.9855 15.9911C82.1085 16.0446 82.1673 16.1622 82.1299 16.2906L81.0978 20.1141L83.2529 21.066C83.2529 21.066 83.301 21.082 83.3331 21.082C83.4294 21.082 83.5363 21.0125 83.5631 20.9216L85.0176 15.5366C85.055 15.4029 84.9962 15.2852 84.8679 15.2317L81.3117 13.6542C81.3117 13.6542 81.2582 13.6382 81.2315 13.6382" fill="#0E2316"/>
<path d="M47.7499 36.9001H23.5841L19.7766 31.7129C19.4825 31.3118 19.5039 30.8199 19.7338 30.4562L19.7445 30.4348C19.937 30.1407 20.2686 29.9375 20.675 29.9375H39.1242C41.3274 29.9375 43.4076 30.9856 44.7124 32.7664L45.4825 33.8145L47.7499 36.9001Z" fill="#FBC56F" stroke="#0E2316" stroke-width="0.481283" stroke-linecap="round" stroke-linejoin="round"/>
<path d="M49.8083 33.8156L47.7495 36.9011L45.4821 33.8156L44.7121 32.7674C43.4072 30.9867 41.3324 29.9386 39.1238 29.9386H20.6746C20.2682 29.9386 19.9367 30.1471 19.7441 30.4359L21.7976 27.361C21.9901 27.0616 22.3217 26.8477 22.7334 26.8477H41.1826C43.3912 26.8477 45.4661 27.9011 46.7709 29.6765L49.803 33.8156H49.8083Z" fill="#FBC56F" stroke="#0E2316" stroke-width="0.481283" stroke-linecap="round" stroke-linejoin="round"/>
<mask id="mask0_736_9291" style="mask-type:luminance" maskUnits="userSpaceOnUse" x="19" y="26" width="31" height="11">
<path d="M49.8093 33.8156L47.7505 36.9011L45.4831 33.8156L44.713 32.7674C43.4082 30.9867 41.3334 29.9386 39.1248 29.9386H20.6756C20.2692 29.9386 19.9376 30.1471 19.7451 30.4359L21.7986 27.361C21.9911 27.0616 22.3227 26.8477 22.7344 26.8477H41.1836C43.3922 26.8477 45.467 27.9011 46.7719 29.6765L49.8039 33.8156H49.8093Z" fill="white"/>
</mask>
<g mask="url(#mask0_736_9291)">
<path d="M45.8038 26.8477L42.2637 31.8744L46.5311 39.4573L52.5097 33.4198L49.8091 26.8477H45.8038Z" fill="#0E2316"/>
</g>
<path d="M88.2616 36.9001H64.0958L60.2883 31.7129C59.9942 31.3118 60.0156 30.8199 60.2455 30.4562L60.2562 30.4348C60.4487 30.1407 60.7803 29.9375 61.1867 29.9375H79.6359C81.8391 29.9375 83.9193 30.9856 85.2241 32.7664L85.9942 33.8145L88.2616 36.9001Z" fill="#FBC56F" stroke="#0E2316" stroke-width="0.481283" stroke-linecap="round" stroke-linejoin="round"/>
<path d="M90.3151 33.8156L88.2563 36.9011L85.9889 33.8156L85.2189 32.7674C83.9141 30.9867 81.8392 29.9386 79.6307 29.9386H61.1815C60.775 29.9386 60.4435 30.1471 60.251 30.4359L62.3045 27.361C62.497 27.0616 62.8285 26.8477 63.2403 26.8477H81.6895C83.898 26.8477 85.9729 27.9011 87.2777 29.6765L90.3098 33.8156H90.3151Z" fill="#FBC56F" stroke="#0E2316" stroke-width="0.481283" stroke-linecap="round" stroke-linejoin="round"/>
<mask id="mask1_736_9291" style="mask-type:luminance" maskUnits="userSpaceOnUse" x="60" y="26" width="31" height="11">
<path d="M90.3151 33.8156L88.2563 36.9011L85.9889 33.8156L85.2189 32.7674C83.9141 30.9867 81.8392 29.9386 79.6307 29.9386H61.1815C60.775 29.9386 60.4435 30.1471 60.251 30.4359L62.3045 27.361C62.497 27.0616 62.8285 26.8477 63.2403 26.8477H81.6895C83.898 26.8477 85.9729 27.9011 87.2777 29.6765L90.3098 33.8156H90.3151Z" fill="white"/>
</mask>
<g mask="url(#mask1_736_9291)">
<path d="M84.5655 25.8828L81.0254 30.9095L87.0361 39.455L93.0147 33.4176L90.3142 26.8454L84.5655 25.8828Z" fill="#0E2316"/>
</g>
<path d="M52.4916 75.0691C53.2349 76.3579 53.6734 77.9247 53.6734 79.6145C53.6734 84.0103 50.7162 87.5718 47.0691 87.5718C43.4221 87.5718 40.4648 84.0103 40.4648 79.6145C40.4648 77.9247 40.9033 76.3579 41.6467 75.0691C40.9033 73.7803 40.4648 72.2135 40.4648 70.5236C40.4648 66.1279 43.4221 62.5664 47.0691 62.5664C50.7162 62.5664 53.6734 66.1279 53.6734 70.5236C53.6734 72.2135 53.2349 73.7803 52.4916 75.0691Z" fill="#FBC56F" stroke="#0E2316" stroke-width="0.481283" stroke-miterlimit="10"/>
<path d="M47.0684 70.6669L50.1004 68.3086" stroke="#0E2316" stroke-width="0.481283" stroke-miterlimit="10"/>
<path d="M47.0684 76.9364L50.1004 74.5781" stroke="#0E2316" stroke-width="0.481283" stroke-miterlimit="10"/>
<path d="M47.0684 83.202L50.1004 80.8438" stroke="#0E2316" stroke-width="0.481283" stroke-miterlimit="10"/>
<path d="M47.0692 70.6669L44.0371 68.3086" stroke="#0E2316" stroke-width="0.481283" stroke-miterlimit="10"/>
<path d="M47.0692 76.9364L44.0371 74.5781" stroke="#0E2316" stroke-width="0.481283" stroke-miterlimit="10"/>
<path d="M47.0692 83.202L44.0371 80.8438" stroke="#0E2316" stroke-width="0.481283" stroke-miterlimit="10"/>
<path d="M47.0684 66.5977V111.009" stroke="#0E2316" stroke-width="0.481283" stroke-miterlimit="10"/>
</g>
<defs>
<clipPath id="clip0_736_9291">
<rect width="130" height="140.476" fill="white"/>
</clipPath>
</defs>
</svg>
