<svg width="362" height="110" viewBox="0 0 362 110" fill="none" xmlns="http://www.w3.org/2000/svg">
<path d="M1 4.78125H361" stroke="#FDE8C5" stroke-width="0.934271" stroke-linecap="round" stroke-linejoin="round"/>
<path d="M1 24.7285H361" stroke="#FDE8C5" stroke-width="0.934271" stroke-linecap="round" stroke-linejoin="round"/>
<path d="M1 44.6738H361" stroke="#FDE8C5" stroke-width="0.934271" stroke-linecap="round" stroke-linejoin="round"/>
<path d="M1 64.6309H361" stroke="#FDE8C5" stroke-width="0.934271" stroke-linecap="round" stroke-linejoin="round"/>
<path d="M1 84.5781H361" stroke="#FDE8C5" stroke-width="0.934271" stroke-linecap="round" stroke-linejoin="round"/>
<path d="M1 104.523H361" stroke="#FDE8C5" stroke-width="0.934271" stroke-linecap="round" stroke-linejoin="round"/>
<g opacity="0.64">
<path d="M13.2695 44.7519L87.5606 104.527L176.403 24.7305L319.703 65.1657L355.285 44.7519" stroke="#C99E59" stroke-width="2.80281" stroke-miterlimit="10"/>
<path d="M18.0472 39.9766H11.4985C10.5096 39.9766 9.70801 40.7337 9.70801 41.6676V47.8525C9.70801 48.7864 10.5096 49.5435 11.4985 49.5435H18.0472C19.0361 49.5435 19.8377 48.7864 19.8377 47.8525V41.6676C19.8377 40.7337 19.0361 39.9766 18.0472 39.9766Z" fill="#C99E59"/>
<path d="M179.688 19.9473H173.139C172.15 19.9473 171.349 20.7044 171.349 21.6383V27.8232C171.349 28.7571 172.15 29.5142 173.139 29.5142H179.688C180.677 29.5142 181.478 28.7571 181.478 27.8232V21.6383C181.478 20.7044 180.677 19.9473 179.688 19.9473Z" fill="#C99E59"/>
<path d="M90.8353 99.752H84.2866C83.2977 99.752 82.4961 100.509 82.4961 101.443V107.628C82.4961 108.562 83.2977 109.319 84.2866 109.319H90.8353C91.8242 109.319 92.6258 108.562 92.6258 107.628V101.443C92.6258 100.509 91.8242 99.752 90.8353 99.752Z" fill="#C99E59"/>
<path d="M323.243 59.8516H316.694C315.705 59.8516 314.903 60.6087 314.903 61.5426V67.7275C314.903 68.6614 315.705 69.4185 316.694 69.4185H323.243C324.231 69.4185 325.033 68.6614 325.033 67.7275V61.5426C325.033 60.6087 324.231 59.8516 323.243 59.8516Z" fill="#C99E59"/>
<path d="M356.502 39.9023H349.954C348.965 39.9023 348.163 40.6594 348.163 41.5934V47.7783C348.163 48.7122 348.965 49.4693 349.954 49.4693H356.502C357.491 49.4693 358.293 48.7122 358.293 47.7783V41.5934C358.293 40.6594 357.491 39.9023 356.502 39.9023Z" fill="#C99E59"/>
</g>
<path d="M9.70605 84.5804L75.3809 44.6776L196.611 64.6337L343.106 3.16797" stroke="#0E2316" stroke-width="2.80281" stroke-miterlimit="10"/>
<path d="M12.9896 79.7969H6.44089C5.45202 79.7969 4.65039 80.554 4.65039 81.4879V87.6728C4.65039 88.6067 5.45202 89.3638 6.44089 89.3638H12.9896C13.9785 89.3638 14.7801 88.6067 14.7801 87.6728V81.4879C14.7801 80.554 13.9785 79.7969 12.9896 79.7969Z" fill="#0E2316"/>
<path d="M78.6546 39.9023H72.1059C71.1171 39.9023 70.3154 40.6594 70.3154 41.5934V47.7783C70.3154 48.7122 71.1171 49.4693 72.1059 49.4693H78.6546C79.6435 49.4693 80.4451 48.7122 80.4451 47.7783V41.5934C80.4451 40.6594 79.6435 39.9023 78.6546 39.9023Z" fill="#0E2316"/>
<path d="M199.886 59.8496H193.337C192.348 59.8496 191.547 60.6067 191.547 61.5406V67.7255C191.547 68.6594 192.348 69.4165 193.337 69.4165H199.886C200.875 69.4165 201.677 68.6594 201.677 67.7255V61.5406C201.677 60.6067 200.875 59.8496 199.886 59.8496Z" fill="#0E2316"/>
<path d="M346.382 0H339.834C338.845 0 338.043 0.757098 338.043 1.69103V7.8759C338.043 8.80983 338.845 9.56693 339.834 9.56693H346.382C347.371 9.56693 348.173 8.80983 348.173 7.8759V1.69103C348.173 0.757098 347.371 0 346.382 0Z" fill="#0E2316"/>
<path d="M20.478 93.6523H6.06504C5.28355 93.6523 4.65039 94.2503 4.65039 94.9883C4.65039 95.7264 5.28355 96.3244 6.06504 96.3244H20.478C21.2595 96.3244 21.8927 95.7264 21.8927 94.9883C21.8927 94.2503 21.2595 93.6523 20.478 93.6523Z" fill="#C99E59"/>
<path d="M86.1431 53.4297H71.73C70.9485 53.4297 70.3154 54.0276 70.3154 54.7657C70.3154 55.5038 70.9485 56.1017 71.73 56.1017H86.1431C86.9246 56.1017 87.5577 55.5038 87.5577 54.7657C87.5577 54.0276 86.9246 53.4297 86.1431 53.4297Z" fill="#C99E59"/>
<path d="M207.375 73.1348H192.961C192.18 73.1348 191.547 73.7327 191.547 74.4708C191.547 75.2088 192.18 75.8068 192.961 75.8068H207.375C208.156 75.8068 208.789 75.2088 208.789 74.4708C208.789 73.7327 208.156 73.1348 207.375 73.1348Z" fill="#C99E59"/>
<path d="M353.871 13.5469H339.458C338.676 13.5469 338.043 14.1448 338.043 14.8829C338.043 15.621 338.676 16.2189 339.458 16.2189H353.871C354.652 16.2189 355.285 15.621 355.285 14.8829C355.285 14.1448 354.652 13.5469 353.871 13.5469Z" fill="#C99E59"/>
</svg>
