<svg width="136" height="106" viewBox="0 0 136 106" fill="none" xmlns="http://www.w3.org/2000/svg">
<g clip-path="url(#clip0_736_9191)">
<path d="M25.1973 45.0586C11.4123 45.0586 0.241211 56.2347 0.241211 70.0196C0.241211 83.8046 11.4174 94.9807 25.2023 94.9807H179.766V45.0636H25.1973V45.0586Z" fill="#5CD1F4" stroke="#00294D" stroke-width="0.475687" stroke-linecap="round" stroke-linejoin="round"/>
<mask id="mask0_736_9191" style="mask-type:luminance" maskUnits="userSpaceOnUse" x="0" y="45" width="180" height="50">
<path d="M25.1953 45.0586C11.4104 45.0586 0.239258 56.2347 0.239258 70.0196C0.239258 83.8046 11.4154 94.9807 25.2003 94.9807H179.764V45.0636H25.1953V45.0586Z" fill="white"/>
</mask>
<g mask="url(#mask0_736_9191)">
<path d="M0.234375 36.2227V105.778" stroke="#00294D" stroke-width="0.450651" stroke-linecap="round" stroke-linejoin="round"/>
<path d="M8.10059 36.2227V105.778" stroke="#00294D" stroke-width="0.450651" stroke-linecap="round" stroke-linejoin="round"/>
<path d="M15.9668 36.2227V105.778" stroke="#00294D" stroke-width="0.450651" stroke-linecap="round" stroke-linejoin="round"/>
<path d="M23.8281 36.2227V105.778" stroke="#00294D" stroke-width="0.450651" stroke-linecap="round" stroke-linejoin="round"/>
<path d="M31.6953 36.2227V105.778" stroke="#00294D" stroke-width="0.450651" stroke-linecap="round" stroke-linejoin="round"/>
<path d="M39.5615 36.2227V105.778" stroke="#00294D" stroke-width="0.450651" stroke-linecap="round" stroke-linejoin="round"/>
<path d="M47.4229 36.2227V105.778" stroke="#00294D" stroke-width="0.450651" stroke-linecap="round" stroke-linejoin="round"/>
<path d="M55.2891 36.2227V105.778" stroke="#00294D" stroke-width="0.450651" stroke-linecap="round" stroke-linejoin="round"/>
<path d="M63.1553 36.2227V105.778" stroke="#00294D" stroke-width="0.450651" stroke-linecap="round" stroke-linejoin="round"/>
<path d="M71.0166 36.2227V105.778" stroke="#00294D" stroke-width="0.450651" stroke-linecap="round" stroke-linejoin="round"/>
<path d="M78.8828 36.2227V105.778" stroke="#00294D" stroke-width="0.450651" stroke-linecap="round" stroke-linejoin="round"/>
<path d="M86.749 36.2227V105.778" stroke="#00294D" stroke-width="0.450651" stroke-linecap="round" stroke-linejoin="round"/>
<path d="M94.6113 36.2227V105.778" stroke="#00294D" stroke-width="0.450651" stroke-linecap="round" stroke-linejoin="round"/>
<path d="M102.478 36.2227V105.778" stroke="#00294D" stroke-width="0.450651" stroke-linecap="round" stroke-linejoin="round"/>
<path d="M110.344 36.2227V105.778" stroke="#00294D" stroke-width="0.450651" stroke-linecap="round" stroke-linejoin="round"/>
<path d="M118.205 36.2227V105.778" stroke="#00294D" stroke-width="0.450651" stroke-linecap="round" stroke-linejoin="round"/>
<path d="M126.071 36.2227V105.778" stroke="#00294D" stroke-width="0.450651" stroke-linecap="round" stroke-linejoin="round"/>
<path d="M133.938 36.2227V105.778" stroke="#00294D" stroke-width="0.450651" stroke-linecap="round" stroke-linejoin="round"/>
</g>
<path d="M25.2311 50.7383C14.5807 50.7383 5.94824 59.3707 5.94824 70.0211C5.94824 80.6715 14.5807 89.304 25.2311 89.304H179.759V50.7383H25.2311Z" fill="#5CD1F4" stroke="#00294D" stroke-width="0.475687" stroke-linecap="round" stroke-linejoin="round"/>
<path d="M43.4588 70.0199C43.4588 77.9263 37.0495 84.3356 29.1381 84.3356H24.877C25.603 84.3356 26.314 84.2805 27.01 84.1754C27.7411 84.0652 28.4521 83.905 29.1431 83.6896C34.9715 81.877 39.2026 76.4392 39.2026 70.0199C39.2026 63.6006 34.9715 58.1628 29.1431 56.3452C28.4571 56.1298 27.7411 55.9696 27.01 55.8595C26.314 55.7543 25.603 55.6992 24.877 55.6992H29.1381C37.0445 55.6992 43.4588 62.1085 43.4588 70.0199Z" fill="#00294D" stroke="#00294D" stroke-width="0.450651" stroke-linecap="round" stroke-linejoin="round"/>
<path d="M24.8772 84.3345C32.7835 84.3345 39.1929 77.9251 39.1929 70.0188C39.1929 62.1125 32.7835 55.7031 24.8772 55.7031C16.9709 55.7031 10.5615 62.1125 10.5615 70.0188C10.5615 77.9251 16.9709 84.3345 24.8772 84.3345Z" fill="#5CD1F4" stroke="#00294D" stroke-width="0.450651" stroke-linecap="round" stroke-linejoin="round"/>
<path d="M24.8771 80.9925C30.9361 80.9925 35.8479 76.0807 35.8479 70.0216C35.8479 63.9626 30.9361 59.0508 24.8771 59.0508C18.8181 59.0508 13.9062 63.9626 13.9062 70.0216C13.9062 76.0807 18.8181 80.9925 24.8771 80.9925Z" fill="#5CD1F4" stroke="#00294D" stroke-width="0.450651" stroke-linecap="round" stroke-linejoin="round"/>
<path d="M25.7183 80.9574C25.4429 80.9774 25.1625 80.9925 24.8771 80.9925C18.8183 80.9925 13.9062 76.0804 13.9062 70.0216C13.9062 63.9629 18.8183 59.0508 24.8771 59.0508C25.1575 59.0508 25.4379 59.0608 25.7183 59.0858C20.0551 59.5165 15.5937 64.2483 15.5937 70.0216C15.5937 75.795 20.0551 80.5318 25.7183 80.9574Z" fill="#00294D" stroke="#00294D" stroke-width="0.450651" stroke-linecap="round" stroke-linejoin="round"/>
<path d="M74.7781 70.0199C74.7781 77.9263 68.3689 84.3356 60.4574 84.3356H56.1963C56.9223 84.3356 57.6334 84.2805 58.3294 84.1754C59.0604 84.0652 59.7715 83.905 60.4624 83.6896C66.2909 81.877 70.522 76.4392 70.522 70.0199C70.522 63.6006 66.2909 58.1628 60.4624 56.3452C59.7765 56.1298 59.0604 55.9696 58.3294 55.8595C57.6334 55.7543 56.9223 55.6992 56.1963 55.6992H60.4574C68.3639 55.6992 74.7781 62.1085 74.7781 70.0199Z" fill="#00294D" stroke="#00294D" stroke-width="0.450651" stroke-linecap="round" stroke-linejoin="round"/>
<path d="M56.2014 84.3345C64.1077 84.3345 70.5171 77.9251 70.5171 70.0188C70.5171 62.1125 64.1077 55.7031 56.2014 55.7031C48.2951 55.7031 41.8857 62.1125 41.8857 70.0188C41.8857 77.9251 48.2951 84.3345 56.2014 84.3345Z" fill="#5CD1F4" stroke="#00294D" stroke-width="0.450651" stroke-linecap="round" stroke-linejoin="round"/>
<path d="M56.2013 80.9925C62.2603 80.9925 67.1722 76.0807 67.1722 70.0216C67.1722 63.9626 62.2603 59.0508 56.2013 59.0508C50.1423 59.0508 45.2305 63.9626 45.2305 70.0216C45.2305 76.0807 50.1423 80.9925 56.2013 80.9925Z" fill="#5CD1F4" stroke="#00294D" stroke-width="0.450651" stroke-linecap="round" stroke-linejoin="round"/>
<path d="M57.0376 80.9574C56.7623 80.9774 56.4818 80.9925 56.1964 80.9925C50.1377 80.9925 45.2256 76.0804 45.2256 70.0216C45.2256 63.9629 50.1377 59.0508 56.1964 59.0508C56.4768 59.0508 56.7572 59.0608 57.0376 59.0858C51.3745 59.5165 46.913 64.2483 46.913 70.0216C46.913 75.795 51.3745 80.5318 57.0376 80.9574Z" fill="#00294D" stroke="#00294D" stroke-width="0.450651" stroke-linecap="round" stroke-linejoin="round"/>
<path d="M106.098 70.0199C106.098 77.9263 99.6892 84.3356 91.7778 84.3356H87.5166C88.2427 84.3356 88.9537 84.2805 89.6497 84.1754C90.3807 84.0652 91.0918 83.905 91.7828 83.6896C97.6112 81.877 101.842 76.4392 101.842 70.0199C101.842 63.6006 97.6112 58.1628 91.7828 56.3452C91.0968 56.1298 90.3807 55.9696 89.6497 55.8595C88.9537 55.7543 88.2427 55.6992 87.5166 55.6992H91.7778C99.6842 55.6992 106.098 62.1085 106.098 70.0199Z" fill="#00294D" stroke="#00294D" stroke-width="0.450651" stroke-linecap="round" stroke-linejoin="round"/>
<path d="M87.5217 84.3345C95.4281 84.3345 101.837 77.9251 101.837 70.0188C101.837 62.1125 95.4281 55.7031 87.5217 55.7031C79.6154 55.7031 73.2061 62.1125 73.2061 70.0188C73.2061 77.9251 79.6154 84.3345 87.5217 84.3345Z" fill="#5CD1F4" stroke="#00294D" stroke-width="0.450651" stroke-linecap="round" stroke-linejoin="round"/>
<path d="M87.5216 80.9925C93.5807 80.9925 98.4925 76.0807 98.4925 70.0216C98.4925 63.9626 93.5807 59.0508 87.5216 59.0508C81.4626 59.0508 76.5508 63.9626 76.5508 70.0216C76.5508 76.0807 81.4626 80.9925 87.5216 80.9925Z" fill="#5CD1F4" stroke="#00294D" stroke-width="0.450651" stroke-linecap="round" stroke-linejoin="round"/>
<path d="M88.358 80.9574C88.0826 80.9774 87.8022 80.9925 87.5167 80.9925C81.458 80.9925 76.5459 76.0804 76.5459 70.0216C76.5459 63.9629 81.458 59.0508 87.5167 59.0508C87.7972 59.0508 88.0776 59.0608 88.358 59.0858C82.6948 59.5165 78.2333 64.2483 78.2333 70.0216C78.2333 75.795 82.6948 80.5318 88.358 80.9574Z" fill="#00294D" stroke="#00294D" stroke-width="0.450651" stroke-linecap="round" stroke-linejoin="round"/>
<path d="M137.419 70.0199C137.419 77.9263 131.009 84.3356 123.098 84.3356H118.837C119.563 84.3356 120.274 84.2805 120.97 84.1754C121.701 84.0652 122.412 83.905 123.103 83.6896C128.931 81.877 133.163 76.4392 133.163 70.0199C133.163 63.6006 128.931 58.1628 123.103 56.3452C122.417 56.1298 121.701 55.9696 120.97 55.8595C120.274 55.7543 119.563 55.6992 118.837 55.6992H123.098C131.004 55.6992 137.419 62.1085 137.419 70.0199Z" fill="#00294D" stroke="#00294D" stroke-width="0.450651" stroke-linecap="round" stroke-linejoin="round"/>
<path d="M118.842 84.3345C126.748 84.3345 133.158 77.9251 133.158 70.0188C133.158 62.1125 126.748 55.7031 118.842 55.7031C110.936 55.7031 104.526 62.1125 104.526 70.0188C104.526 77.9251 110.936 84.3345 118.842 84.3345Z" fill="#5CD1F4" stroke="#00294D" stroke-width="0.450651" stroke-linecap="round" stroke-linejoin="round"/>
<path d="M118.843 80.9925C124.902 80.9925 129.814 76.0807 129.814 70.0216C129.814 63.9626 124.902 59.0508 118.843 59.0508C112.784 59.0508 107.872 63.9626 107.872 70.0216C107.872 76.0807 112.784 80.9925 118.843 80.9925Z" fill="#5CD1F4" stroke="#00294D" stroke-width="0.450651" stroke-linecap="round" stroke-linejoin="round"/>
<path d="M119.678 80.9574C119.403 80.9774 119.122 80.9925 118.837 80.9925C112.778 80.9925 107.866 76.0804 107.866 70.0216C107.866 63.9629 112.778 59.0508 118.837 59.0508C119.117 59.0508 119.398 59.0608 119.678 59.0858C114.015 59.5165 109.554 64.2483 109.554 70.0216C109.554 75.795 114.015 80.5318 119.678 80.9574Z" fill="#00294D" stroke="#00294D" stroke-width="0.450651" stroke-linecap="round" stroke-linejoin="round"/>
<path d="M150.161 84.3345C158.068 84.3345 164.477 77.9251 164.477 70.0188C164.477 62.1125 158.068 55.7031 150.161 55.7031C142.255 55.7031 135.846 62.1125 135.846 70.0188C135.846 77.9251 142.255 84.3345 150.161 84.3345Z" fill="#5CD1F4" stroke="#00294D" stroke-width="0.450651" stroke-linecap="round" stroke-linejoin="round"/>
<path d="M58.0566 40.0909V45.0581H119.265C120.492 45.0581 121.493 44.0617 121.493 42.8299V40.0859H58.0566V40.0909Z" fill="#00294D" stroke="#00294D" stroke-width="0.450651" stroke-linecap="round" stroke-linejoin="round"/>
<path d="M40.7529 40.0898V42.8338C40.7529 44.0656 41.7494 45.062 42.9811 45.062H98.4212C99.653 45.062 100.649 44.0656 100.649 42.8338V40.0898H40.7579H40.7529Z" fill="#5CD1F4" stroke="#00294D" stroke-width="0.450651" stroke-linecap="round" stroke-linejoin="round"/>
<path d="M51.9824 35.1261V40.0933H113.191C114.418 40.0933 115.419 39.0968 115.419 37.8651V35.1211H51.9824V35.1261Z" fill="#00294D" stroke="#00294D" stroke-width="0.450651" stroke-linecap="round" stroke-linejoin="round"/>
<path d="M34.6709 35.125V37.869C34.6709 39.0957 35.6673 40.0972 36.8991 40.0972H92.3392C93.571 40.0972 94.5674 39.1007 94.5674 37.869V35.125H34.6759H34.6709Z" fill="#5CD1F4" stroke="#00294D" stroke-width="0.450651" stroke-linecap="round" stroke-linejoin="round"/>
<path d="M59.46 30.1574V35.1245H120.668C121.9 35.1245 122.897 34.1281 122.897 32.8963V30.1523H59.46V30.1574Z" fill="#00294D" stroke="#00294D" stroke-width="0.450651" stroke-linecap="round" stroke-linejoin="round"/>
<path d="M42.1504 30.1562V32.9002C42.1504 34.127 43.1468 35.1284 44.3786 35.1284H99.8187C101.045 35.1284 102.047 34.132 102.047 32.9002V30.1562H42.1554H42.1504Z" fill="#5CD1F4" stroke="#00294D" stroke-width="0.450651" stroke-linecap="round" stroke-linejoin="round"/>
<path d="M98.7076 0.226562H72.6549C71.7728 0.226562 71.0576 0.941701 71.0576 1.82387V28.4824C71.0576 29.3645 71.7728 30.0797 72.6549 30.0797H98.7076C99.5897 30.0797 100.305 29.3645 100.305 28.4824V1.82387C100.305 0.941701 99.5897 0.226562 98.7076 0.226562Z" fill="#00294D" stroke="#00294D" stroke-width="0.450651" stroke-linecap="round" stroke-linejoin="round"/>
<path d="M85.7088 0.226562H62.9059C62.0237 0.226562 61.3086 0.941701 61.3086 1.82387V28.4824C61.3086 29.3645 62.0237 30.0797 62.9059 30.0797H85.7088C86.591 30.0797 87.3061 29.3645 87.3061 28.4824V1.82387C87.3061 0.941701 86.591 0.226562 85.7088 0.226562Z" fill="#5CD1F4" stroke="#00294D" stroke-width="0.450651" stroke-linecap="round" stroke-linejoin="round"/>
<path d="M76.2446 0.226562H72.374V30.0797H76.2446V0.226562Z" fill="#5CD1F4" stroke="#00294D" stroke-width="0.450651" stroke-linecap="round" stroke-linejoin="round"/>
<path d="M95.7432 0.226562V30.0797" stroke="#5CD1F4" stroke-width="0.450651" stroke-linecap="round" stroke-linejoin="round"/>
<path d="M91.8721 30.0797V0.226562" stroke="#5CD1F4" stroke-width="0.450651" stroke-linecap="round" stroke-linejoin="round"/>
<path d="M97.3867 16.4141L96.0147 16.9699C95.1484 17.3204 94.7328 18.3018 95.0833 19.163L99.4847 30.0788L102.424 28.8971L97.3867 16.4141Z" fill="#5CD1F4" stroke="#00294D" stroke-width="0.450651" stroke-linecap="round" stroke-linejoin="round"/>
<path d="M103.896 17.1651C103.711 16.7095 103.27 16.4141 102.785 16.4141H97.3867L102.424 28.8971H108.633L103.901 17.1651H103.896Z" fill="#00294D" stroke="#00294D" stroke-width="0.450651" stroke-linecap="round" stroke-linejoin="round"/>
<path d="M99.4845 30.0762H104.296C105.218 30.0762 106.134 29.901 106.985 29.5555L108.628 28.8945H102.419L99.4795 30.0762H99.4845Z" fill="#00294D" stroke="#00294D" stroke-width="0.450651" stroke-linecap="round" stroke-linejoin="round"/>
<path d="M22.8917 72.1749V68.9402L20.8538 67.8887C20.7236 67.8236 20.5684 67.9137 20.5684 68.0589V72.4553C20.5684 72.6305 20.6635 72.7858 20.8237 72.8659L24.5391 74.7837C24.6693 74.8487 24.8195 74.7586 24.8195 74.6134V73.4417L23.1321 72.5705C22.9869 72.4953 22.8917 72.3401 22.8917 72.1749Z" fill="#00294D"/>
<path d="M26.0571 72.1862V67.2891L23.178 65.7969C23.0478 65.7268 22.8926 65.822 22.8926 65.9722V68.9415L24.57 69.8077C24.7252 69.8878 24.8204 70.0481 24.8204 70.2233V73.443L27.7045 74.9301C27.8347 74.9952 27.9899 74.9001 27.9899 74.7549V73.453L26.3025 72.5817C26.1523 72.5066 26.0622 72.3514 26.0622 72.1862H26.0571Z" fill="#00294D"/>
<path d="M30.6124 67.3137L26.3362 65.1055C26.206 65.0354 26.0508 65.1306 26.0508 65.2808V67.2937L27.7382 68.1699C27.8834 68.245 27.9786 68.3953 27.9786 68.5605V73.4576L30.5673 74.7895C30.6975 74.8546 30.8527 74.7595 30.8527 74.6143V67.7193C30.8527 67.549 30.7576 67.3938 30.6024 67.3137H30.6124Z" fill="#00294D"/>
<path d="M54.214 72.1749V68.9402L52.176 67.8887C52.0458 67.8236 51.8906 67.9137 51.8906 68.0589V72.4553C51.8906 72.6305 51.9858 72.7858 52.146 72.8659L55.8614 74.7837C55.9915 74.8487 56.1418 74.7586 56.1418 74.6134V73.4417L54.4543 72.5705C54.3091 72.4953 54.214 72.3401 54.214 72.1749Z" fill="#00294D"/>
<path d="M57.3794 72.1862V67.2891L54.5003 65.7969C54.3701 65.7268 54.2148 65.822 54.2148 65.9722V68.9415L55.8923 69.8077C56.0475 69.8878 56.1426 70.0481 56.1426 70.2233V73.443L59.0268 74.9301C59.157 74.9952 59.3122 74.9001 59.3122 74.7549V73.453L57.6248 72.5817C57.4746 72.5066 57.3844 72.3514 57.3844 72.1862H57.3794Z" fill="#00294D"/>
<path d="M61.9346 67.3137L57.6585 65.1055C57.5283 65.0354 57.373 65.1306 57.373 65.2808V67.2937L59.0605 68.1699C59.2057 68.245 59.3008 68.3953 59.3008 68.5605V73.4576L61.8896 74.7895C62.0198 74.8546 62.175 74.7595 62.175 74.6143V67.7193C62.175 67.549 62.0798 67.3938 61.9246 67.3137H61.9346Z" fill="#00294D"/>
<path d="M85.5323 72.1749V68.9402L83.4944 67.8887C83.3642 67.8236 83.209 67.9137 83.209 68.0589V72.4553C83.209 72.6305 83.3041 72.7858 83.4644 72.8659L87.1797 74.7837C87.3099 74.8487 87.4601 74.7586 87.4601 74.6134V73.4417L85.7727 72.5705C85.6275 72.4953 85.5323 72.3401 85.5323 72.1749Z" fill="#00294D"/>
<path d="M88.6978 72.1862V67.2891L85.8186 65.7969C85.6884 65.7268 85.5332 65.822 85.5332 65.9722V68.9415L87.2106 69.8077C87.3658 69.8878 87.461 70.0481 87.461 70.2233V73.443L90.3451 74.9301C90.4753 74.9952 90.6306 74.9001 90.6306 74.7549V73.453L88.9431 72.5817C88.7929 72.5066 88.7028 72.3514 88.7028 72.1862H88.6978Z" fill="#00294D"/>
<path d="M93.253 67.3137L88.9768 65.1055C88.8466 65.0354 88.6914 65.1306 88.6914 65.2808V67.2937L90.3788 68.1699C90.5241 68.245 90.6192 68.3953 90.6192 68.5605V73.4576L93.2079 74.7895C93.3381 74.8546 93.4933 74.7595 93.4933 74.6143V67.7193C93.4933 67.549 93.3982 67.3938 93.243 67.3137H93.253Z" fill="#00294D"/>
<path d="M116.854 72.1749V68.9402L114.816 67.8887C114.686 67.8236 114.53 67.9137 114.53 68.0589V72.4553C114.53 72.6305 114.625 72.7858 114.786 72.8659L118.501 74.7837C118.631 74.8487 118.781 74.7586 118.781 74.6134V73.4417L117.094 72.5705C116.949 72.4953 116.854 72.3401 116.854 72.1749Z" fill="#00294D"/>
<path d="M120.019 72.1862V67.2891L117.14 65.7969C117.01 65.7268 116.854 65.822 116.854 65.9722V68.9415L118.532 69.8077C118.687 69.8878 118.782 70.0481 118.782 70.2233V73.443L121.666 74.9301C121.797 74.9952 121.952 74.9001 121.952 74.7549V73.453L120.264 72.5817C120.114 72.5066 120.024 72.3514 120.024 72.1862H120.019Z" fill="#00294D"/>
<path d="M124.58 67.3137L120.304 65.1055C120.174 65.0354 120.019 65.1306 120.019 65.2808V67.2937L121.706 68.1699C121.851 68.245 121.946 68.3953 121.946 68.5605V73.4576L124.535 74.7895C124.665 74.8546 124.82 74.7595 124.82 74.6143V67.7193C124.82 67.549 124.725 67.3938 124.57 67.3137H124.58Z" fill="#00294D"/>
</g>
<defs>
<clipPath id="clip0_736_9191">
<rect width="180" height="106.008" fill="white"/>
</clipPath>
</defs>
</svg>
