<svg width="102" height="67" viewBox="0 0 102 67" fill="none" xmlns="http://www.w3.org/2000/svg">
<path d="M38.9029 53.8164H50.4038C53.9508 53.8164 56.8262 50.9422 56.8262 47.3967L56.8262 18.8321C56.8262 15.2867 53.9508 12.4125 50.4038 12.4125H38.9029C35.3559 12.4125 32.4805 15.2867 32.4805 18.8321V47.3967C32.4805 50.9422 35.3559 53.8164 38.9029 53.8164Z" fill="#FF7646" stroke="#FF7646" stroke-width="0.269353" stroke-linecap="round" stroke-linejoin="round"/>
<path d="M35.5783 12.4141H2.43936C1.64442 12.4141 1 13.0582 1 13.8528V52.3792C1 53.1738 1.64442 53.818 2.43936 53.818H35.5783C36.3732 53.818 37.0176 53.1738 37.0176 52.3792V13.8528C37.0176 13.0582 36.3732 12.4141 35.5783 12.4141Z" fill="#F4FFF1" stroke="#FF7646" stroke-width="0.269353" stroke-linecap="round" stroke-linejoin="round"/>
<path d="M32.9715 16.0156H5.04292C4.79809 16.0156 4.59961 16.214 4.59961 16.4587V49.7743C4.59961 50.019 4.79809 50.2174 5.04292 50.2174H32.9715C33.2164 50.2174 33.4148 50.019 33.4148 49.7743V16.4587C33.4148 16.214 33.2164 16.0156 32.9715 16.0156Z" stroke="#FF7646" stroke-width="0.269353" stroke-linecap="round" stroke-linejoin="round"/>
<path d="M29.812 16.0156V27.4162" stroke="#FF7646" stroke-width="0.269353" stroke-linecap="round" stroke-linejoin="round"/>
<path d="M26.2095 16.0156V27.4162" stroke="#FF7646" stroke-width="0.269353" stroke-linecap="round" stroke-linejoin="round"/>
<path d="M22.6099 16.0156V27.4162" stroke="#FF7646" stroke-width="0.673382" stroke-linecap="round" stroke-linejoin="round"/>
<path d="M11.8047 16.0156V27.4162" stroke="#FF7646" stroke-width="0.269353" stroke-linecap="round" stroke-linejoin="round"/>
<path d="M8.20215 16.0156V27.4162" stroke="#FF7646" stroke-width="0.269353" stroke-linecap="round" stroke-linejoin="round"/>
<path d="M29.812 27.4141V38.8147" stroke="#FF7646" stroke-width="0.269353" stroke-linecap="round" stroke-linejoin="round"/>
<path d="M26.2095 27.4141V38.8147" stroke="#FF7646" stroke-width="0.269353" stroke-linecap="round" stroke-linejoin="round"/>
<path d="M11.8047 27.4141V38.8147" stroke="#FF7646" stroke-width="0.269353" stroke-linecap="round" stroke-linejoin="round"/>
<path d="M8.20215 27.4141V38.8147" stroke="#FF7646" stroke-width="0.269353" stroke-linecap="round" stroke-linejoin="round"/>
<path d="M29.812 38.8164V50.217" stroke="#FF7646" stroke-width="0.269353" stroke-linecap="round" stroke-linejoin="round"/>
<path d="M26.2095 38.8164V50.217" stroke="#FF7646" stroke-width="0.269353" stroke-linecap="round" stroke-linejoin="round"/>
<path d="M11.8047 38.8164V50.217" stroke="#FF7646" stroke-width="0.269353" stroke-linecap="round" stroke-linejoin="round"/>
<path d="M8.20215 38.8164V50.217" stroke="#FF7646" stroke-width="0.269353" stroke-linecap="round" stroke-linejoin="round"/>
<path d="M33.415 27.4141H4.63623" stroke="#FF7646" stroke-width="0.269353" stroke-linecap="round" stroke-linejoin="round"/>
<path d="M4.59961 38.8164H33.4148" stroke="#FF7646" stroke-width="0.269353" stroke-linecap="round" stroke-linejoin="round"/>
<path d="M25.1042 58.9883H27.4863V53.8195H25.1042V58.9883Z" fill="#FF7646" stroke="#FF7646" stroke-width="0.269353" stroke-linecap="round" stroke-linejoin="round"/>
<path d="M21.5044 62.0343C21.5044 64.5836 23.1009 66.6506 25.0705 66.6506H28.0474C27.5172 66.6506 27.0121 66.4992 26.5576 66.2299C25.9487 65.8681 25.4353 65.2904 25.0677 64.5724C24.6974 63.8433 24.4813 62.971 24.4813 62.0343C24.4813 61.0976 24.6974 60.2253 25.0677 59.4962C25.4325 58.7782 25.9487 58.2004 26.5576 57.8387C27.0093 57.5694 27.5144 57.418 28.0474 57.418H25.0705C23.1009 57.418 21.5044 59.4849 21.5044 62.0343Z" fill="#F4FFF1" stroke="#FF7646" stroke-width="0.269353" stroke-linecap="round" stroke-linejoin="round"/>
<path d="M28.0468 66.6525H25.0699C24.3319 66.6525 23.6473 66.3636 23.0806 65.8672H26.0603C26.2174 66.0046 26.3858 66.128 26.5597 66.2318C27.0114 66.501 27.5165 66.6525 28.0496 66.6525H28.0468Z" fill="#FF7646"/>
<path d="M28.0472 57.418C27.5169 57.418 27.0118 57.5694 26.5573 57.8387C25.9484 58.2004 25.435 58.7782 25.0674 59.4962C25.0394 59.5522 25.0113 59.6083 24.9861 59.6644H22.0063C22.6292 58.3182 23.7656 57.418 25.0674 57.418H28.0444H28.0472Z" fill="#FF7646"/>
<path d="M24.4844 62.0343C24.4844 62.971 24.7004 63.8433 25.0708 64.5724C25.4355 65.2904 25.9518 65.8653 26.5606 66.2299C27.0124 66.4992 27.5174 66.6506 28.0505 66.6506C30.0202 66.6506 31.6166 64.5836 31.6166 62.0343C31.6166 59.4849 30.0202 57.418 28.0505 57.418C27.5202 57.418 27.0152 57.5694 26.5606 57.8387C25.9518 58.2004 25.4383 58.7782 25.0708 59.4962C24.7004 60.2253 24.4844 61.0976 24.4844 62.0343Z" fill="#FF7646" stroke="#FF7646" stroke-width="0.269353" stroke-linecap="round" stroke-linejoin="round"/>
<path d="M44.9128 58.9883H47.2949V53.8195H44.9128V58.9883Z" fill="#FF7646" stroke="#FF7646" stroke-width="0.269353" stroke-linecap="round" stroke-linejoin="round"/>
<path d="M41.3164 62.0343C41.3164 64.5836 42.9129 66.6506 44.8825 66.6506H47.8595C47.3292 66.6506 46.8241 66.4992 46.3696 66.2299C45.7607 65.8681 45.2473 65.2904 44.8797 64.5724C44.5094 63.8433 44.2933 62.971 44.2933 62.0343C44.2933 61.0976 44.5094 60.2253 44.8797 59.4962C45.2445 58.7782 45.7607 58.2004 46.3696 57.8387C46.8213 57.5694 47.3264 57.418 47.8595 57.418H44.8825C42.9129 57.418 41.3164 59.4849 41.3164 62.0343Z" fill="#F4FFF1" stroke="#FF7646" stroke-width="0.269353" stroke-linecap="round" stroke-linejoin="round"/>
<path d="M44.2935 62.0343C44.2935 62.971 44.5095 63.8433 44.8799 64.5724C45.2446 65.2904 45.7609 65.8653 46.3697 66.2299C46.8215 66.4992 47.3265 66.6506 47.8596 66.6506C49.8292 66.6506 51.4257 64.5836 51.4257 62.0343C51.4257 59.4849 49.8292 57.418 47.8596 57.418C47.3293 57.418 46.8243 57.5694 46.3697 57.8387C45.7609 58.2004 45.2474 58.7782 44.8799 59.4962C44.5095 60.2253 44.2935 61.0976 44.2935 62.0343Z" fill="#FF7646" stroke="#FF7646" stroke-width="0.269353" stroke-linecap="round" stroke-linejoin="round"/>
<path d="M8.85863 58.9883H11.2407V53.8195H8.85863V58.9883Z" fill="#FF7646" stroke="#FF7646" stroke-width="0.269353" stroke-linecap="round" stroke-linejoin="round"/>
<path d="M5.26172 62.0343C5.26172 64.5836 6.8582 66.6506 8.82785 66.6506H11.8048C11.2745 66.6506 10.7694 66.4992 10.3149 66.2299C9.70606 65.8681 9.1926 65.2904 8.82505 64.5724C8.45468 63.8433 8.23864 62.971 8.23864 62.0343C8.23864 61.0976 8.45468 60.2253 8.82505 59.4962C9.1898 58.7782 9.70606 58.2004 10.3149 57.8387C10.7666 57.5694 11.2717 57.418 11.8048 57.418H8.82785C6.8582 57.418 5.26172 59.4849 5.26172 62.0343Z" fill="#F4FFF1" stroke="#FF7646" stroke-width="0.269353" stroke-linecap="round" stroke-linejoin="round"/>
<path d="M11.8056 66.6525H8.82864C8.09073 66.6525 7.40612 66.3636 6.83936 65.8672H9.81908C9.9762 66.0046 10.1446 66.128 10.3185 66.2318C10.7702 66.501 11.2753 66.6525 11.8084 66.6525H11.8056Z" fill="#FF7646"/>
<path d="M11.805 57.418C11.2747 57.418 10.7697 57.5694 10.3151 57.8387C9.70626 58.2004 9.19281 58.7782 8.82525 59.4962C8.7972 59.5522 8.76914 59.6083 8.74389 59.6644H5.76416C6.38704 58.3182 7.52338 57.418 8.82525 57.418H11.8022H11.805Z" fill="#FF7646"/>
<path d="M8.23877 62.0343C8.23877 62.971 8.45481 63.8433 8.82518 64.5724C9.18993 65.2904 9.70619 65.8653 10.315 66.2299C10.7668 66.4992 11.2718 66.6506 11.8049 66.6506C13.7745 66.6506 15.371 64.5836 15.371 62.0343C15.371 59.4849 13.7745 57.418 11.8049 57.418C11.2746 57.418 10.7696 57.5694 10.315 57.8387C9.70619 58.2004 9.19273 58.7782 8.82518 59.4962C8.45481 60.2253 8.23877 61.0976 8.23877 62.0343Z" fill="white" stroke="#FF7646" stroke-width="0.673382" stroke-linecap="round" stroke-linejoin="round"/>
<path d="M8.23877 62.0343C8.23877 62.971 8.45481 63.8433 8.82518 64.5724C9.18993 65.2904 9.70619 65.8653 10.315 66.2299C10.7668 66.4992 11.2718 66.6506 11.8049 66.6506C13.7745 66.6506 15.371 64.5836 15.371 62.0343C15.371 59.4849 13.7745 57.418 11.8049 57.418C11.2746 57.418 10.7696 57.5694 10.315 57.8387C9.70619 58.2004 9.19273 58.7782 8.82518 59.4962C8.45481 60.2253 8.23877 61.0976 8.23877 62.0343Z" fill="#FF7646" stroke="#FF7646" stroke-width="0.269353" stroke-linecap="round" stroke-linejoin="round"/>
<path d="M51.5099 17.7496L50.5278 17.242V15.6294C50.5278 15.5453 50.6176 15.4891 50.6934 15.5284L53.1793 16.8101C53.2691 16.855 53.3224 16.9475 53.3224 17.0457V21.2554C53.3224 21.3395 53.2326 21.3956 53.1568 21.3563L51.6529 20.5823V17.9824C51.6529 17.8843 51.5968 17.7917 51.5099 17.7468V17.7496Z" fill="white"/>
<path d="M49.6656 18.3432L48.6836 17.8356V16.4809C48.6836 16.3968 48.7734 16.3407 48.8491 16.38L50.5242 17.2438V19.8436C50.5242 19.9418 50.5803 20.0343 50.6673 20.0792L51.6493 20.5868V21.302C51.6493 21.3861 51.5595 21.4422 51.4838 21.403L49.8087 20.5392V18.5816C49.8087 18.4834 49.7526 18.3909 49.6656 18.346V18.3432Z" fill="white"/>
<path d="M47.5084 17.2276L48.6869 17.8362V19.7938C48.6869 19.892 48.743 19.9845 48.83 20.0294L49.812 20.537V21.2606C49.812 21.3447 49.7222 21.4009 49.6464 21.3616L47.4888 20.2482C47.399 20.2033 47.3457 20.1107 47.3457 20.0126V17.3286C47.3457 17.2445 47.4355 17.1884 47.5112 17.2276H47.5084Z" fill="white"/>
<path d="M47.8593 66.6525H44.8824C44.1444 66.6525 43.4598 66.3636 42.8931 65.8672H45.8728C46.0299 66.0046 46.1983 66.128 46.3722 66.2318C46.824 66.501 47.329 66.6525 47.8621 66.6525H47.8593Z" fill="#FF7646"/>
<path d="M47.8587 57.418C47.3284 57.418 46.8234 57.5694 46.3688 57.8387C45.76 58.2004 45.2465 58.7782 44.879 59.4962C44.8509 59.5522 44.8228 59.6083 44.7976 59.6644H41.8179C42.4408 58.3182 43.5771 57.418 44.879 57.418H47.8559H47.8587Z" fill="#FF7646"/>
<mask id="mask0_383_4227" style="mask-type:luminance" maskUnits="userSpaceOnUse" x="4" y="16" width="30" height="35">
<path d="M32.9715 16.0156H5.04292C4.79809 16.0156 4.59961 16.214 4.59961 16.4587V49.7743C4.59961 50.019 4.79809 50.2174 5.04292 50.2174H32.9715C33.2164 50.2174 33.4148 50.019 33.4148 49.7743V16.4587C33.4148 16.214 33.2164 16.0156 32.9715 16.0156Z" fill="white"/>
</mask>
<g mask="url(#mask0_383_4227)">
<path d="M5.03174 16.0156L33.4149 17.216V16.0156H5.03174Z" fill="#FF7646"/>
</g>
<path d="M23.735 16.0156H22.6099V50.2174H23.735V16.0156Z" fill="#FF7646" stroke="#FF7646" stroke-width="0.303022" stroke-linecap="round" stroke-linejoin="round"/>
<path d="M22.6077 16.0156H15.4053V28.4146H22.6077V16.0156Z" fill="#F4FFF1" stroke="#FF7646" stroke-width="0.269353" stroke-linecap="round" stroke-linejoin="round"/>
<path d="M22.6077 26.418H15.4053V38.817H22.6077V26.418Z" fill="#F4FFF1" stroke="#FF7646" stroke-width="0.269353" stroke-linecap="round" stroke-linejoin="round"/>
<path d="M22.6077 37.8164H15.4053V50.2154H22.6077V37.8164Z" fill="#F4FFF1" stroke="#FF7646" stroke-width="0.269353" stroke-linecap="round" stroke-linejoin="round"/>
<path d="M89.8565 60.2152H71.3945V50.6235L89.8565 50.043V60.2152Z" fill="#F4FFF1" stroke="#FF7646" stroke-width="0.269353" stroke-linecap="round" stroke-linejoin="round"/>
<path d="M83.5236 66.6513H82.4266C81.9889 66.6513 81.6241 66.3204 81.582 65.8857L81.0293 60.2148H84.9237L84.371 65.8857C84.3289 66.3204 83.9641 66.6513 83.5264 66.6513H83.5236Z" fill="#FF7646" stroke="#FF7646" stroke-width="0.269353" stroke-linecap="round" stroke-linejoin="round"/>
<path d="M75.0872 66.3503C75.7017 66.5438 76.3526 66.6503 77.0316 66.6503H73.1428C69.5879 66.6503 66.7036 63.7672 66.7036 60.2138C66.7036 56.6604 69.4813 53.8867 72.9436 53.7802C73.011 53.7802 73.0755 53.7773 73.1428 53.7773H77.0316C76.3526 53.7773 75.7017 53.8811 75.0872 54.0774C74.3044 54.3242 73.589 54.7169 72.9661 55.2245C71.5183 56.4052 70.5924 58.203 70.5924 60.2167C70.5924 62.2303 71.5857 64.1543 73.1232 65.3322C73.7068 65.7809 74.3718 66.1287 75.0872 66.3559V66.3503Z" fill="#F4FFF1" stroke="#FF7646" stroke-width="0.269353" stroke-linecap="round" stroke-linejoin="round"/>
<path d="M73.1431 53.7773C73.0757 53.7773 73.0112 53.7773 72.9438 53.7802L73.1431 53.7773Z" fill="white" stroke="#FF7646" stroke-width="1.01007" stroke-linecap="round" stroke-linejoin="round"/>
<path d="M77.031 66.6503C80.5873 66.6503 83.4703 63.7686 83.4703 60.2138C83.4703 56.6591 80.5873 53.7773 77.031 53.7773C73.4747 53.7773 70.5918 56.6591 70.5918 60.2138C70.5918 63.7686 73.4747 66.6503 77.031 66.6503Z" fill="#FF7646" stroke="#FF7646" stroke-width="0.269353" stroke-linecap="round" stroke-linejoin="round"/>
<mask id="mask1_383_4227" style="mask-type:luminance" maskUnits="userSpaceOnUse" x="66" y="53" width="12" height="14">
<path d="M75.0882 66.3893C75.7027 66.5828 76.3536 66.6894 77.0326 66.6894H73.1438C69.5889 66.6894 66.7046 63.8063 66.7046 60.2529C66.7046 56.6995 69.4823 53.9258 72.9446 53.8192C73.012 53.8192 73.0765 53.8164 73.1438 53.8164H77.0326C76.3536 53.8164 75.7027 53.9202 75.0882 54.1165C74.3054 54.3633 73.5899 54.7559 72.9671 55.2636C71.5193 56.4443 70.5934 58.242 70.5934 60.2557C70.5934 62.2694 71.5866 64.1933 73.1242 65.3713C73.7078 65.82 74.3728 66.1678 75.0882 66.3949V66.3893Z" fill="white"/>
</mask>
<g mask="url(#mask1_383_4227)">
<path d="M78.5599 53.0547H64.3711V57.4579H78.5599V53.0547Z" fill="#FF7646"/>
<path d="M78.5599 64.8438H64.3711V66.9584H78.5599V64.8438Z" fill="#FF7646"/>
</g>
<path d="M101 1.56885V58.8691C101 59.6123 100.397 60.2153 99.6537 60.2153H86.7724C85.8016 60.2153 84.957 59.5394 84.7578 58.5886C84.0087 55.0128 80.8354 52.326 77.0335 52.326C73.2317 52.326 70.0584 55.0128 69.3093 58.5886C69.1101 59.5394 68.2655 60.2153 67.2947 60.2153H61.8179V15.2215L72.5359 0.222656H99.6537C100.397 0.222656 101 0.825636 101 1.56885Z" fill="#FF7646" stroke="#FF7646" stroke-width="0.269353" stroke-linecap="round" stroke-linejoin="round"/>
<path d="M95.9836 66.6513H94.8865C94.4488 66.6513 94.0841 66.3204 94.042 65.8857L93.4893 60.2148H97.3837L96.8309 65.8857C96.7888 66.3204 96.4241 66.6513 95.9864 66.6513H95.9836Z" fill="#FF7646" stroke="#FF7646" stroke-width="0.269353" stroke-linecap="round" stroke-linejoin="round"/>
<path d="M53.8416 66.3503C54.4561 66.5438 55.107 66.6503 55.786 66.6503H51.8972C48.3423 66.6503 45.458 63.7672 45.458 60.2138C45.458 56.6604 48.2357 53.8867 51.698 53.7802C51.7654 53.7802 51.8299 53.7773 51.8972 53.7773H55.786C55.107 53.7773 54.4561 53.8811 53.8416 54.0774C53.0588 54.3242 52.3434 54.7169 51.7205 55.2245C50.2727 56.4052 49.3468 58.203 49.3468 60.2167C49.3468 62.2303 50.34 64.1543 51.8776 65.3322C52.4612 65.7809 53.1262 66.1287 53.8416 66.3559V66.3503Z" fill="#F4FFF1" stroke="#FF7646" stroke-width="0.269353" stroke-linecap="round" stroke-linejoin="round"/>
<path d="M51.8975 53.7773C51.8301 53.7773 51.7656 53.7773 51.6982 53.7802L51.8975 53.7773Z" fill="white" stroke="#FF7646" stroke-width="1.01007" stroke-linecap="round" stroke-linejoin="round"/>
<path d="M55.7854 66.6503C59.3417 66.6503 62.2247 63.7686 62.2247 60.2138C62.2247 56.6591 59.3417 53.7773 55.7854 53.7773C52.2291 53.7773 49.3462 56.6591 49.3462 60.2138C49.3462 63.7686 52.2291 66.6503 55.7854 66.6503Z" fill="#FF7646" stroke="#FF7646" stroke-width="0.269353" stroke-linecap="round" stroke-linejoin="round"/>
<mask id="mask2_383_4227" style="mask-type:luminance" maskUnits="userSpaceOnUse" x="45" y="53" width="11" height="14">
<path d="M53.8421 66.3503C54.4566 66.5438 55.1075 66.6503 55.7865 66.6503H51.8977C48.3428 66.6503 45.4585 63.7672 45.4585 60.2138C45.4585 56.6604 48.2362 53.8867 51.6985 53.7802C51.7659 53.7802 51.8304 53.7773 51.8977 53.7773H55.7865C55.1075 53.7773 54.4566 53.8811 53.8421 54.0774C53.0593 54.3242 52.3439 54.7169 51.721 55.2245C50.2732 56.4052 49.3473 58.203 49.3473 60.2167C49.3473 62.2303 50.3405 64.1543 51.8781 65.3322C52.4617 65.7809 53.1267 66.1287 53.8421 66.3559V66.3503Z" fill="white"/>
</mask>
<g mask="url(#mask2_383_4227)">
<path d="M57.3133 53.0156H43.1245V57.4188H57.3133V53.0156Z" fill="#FF7646"/>
<path d="M57.3133 64.8047H43.1245V66.9193H57.3133V64.8047Z" fill="#FF7646"/>
</g>
<path d="M53.005 1.38825L45.4238 11.998C43.9283 14.0902 43.123 16.5975 43.123 19.1693V58.8624C43.123 59.6056 43.7263 60.2086 44.4698 60.2086H63.2095C63.9531 60.2086 64.5563 59.6056 64.5563 58.8624V19.1693C64.5563 16.5975 65.3616 14.0902 66.857 11.998L75.2743 0.21875H55.2776C54.3742 0.21875 53.5296 0.653454 53.005 1.38825Z" fill="#F4FFF1" stroke="#FF7646" stroke-width="0.269353" stroke-linecap="round" stroke-linejoin="round"/>
<path d="M59.0376 23.7891H48.6703C47.1362 23.7891 45.8926 25.0322 45.8926 26.5656V48.9265C45.8926 50.4599 47.1362 51.703 48.6703 51.703H59.0376C60.5717 51.703 61.8153 50.4599 61.8153 48.9265V26.5656C61.8153 25.0322 60.5717 23.7891 59.0376 23.7891Z" fill="#F4FFF1" stroke="#FF7646" stroke-width="0.269353" stroke-linecap="round" stroke-linejoin="round"/>
<path d="M61.1924 23.7891H46.5155C46.1732 23.7891 45.8926 24.0667 45.8926 24.4117V32.4917H61.8153V24.4117C61.8153 24.0695 61.5375 23.7891 61.1924 23.7891Z" fill="#F4FFF1" stroke="#FF7646" stroke-width="0.269353" stroke-linecap="round" stroke-linejoin="round"/>
<path d="M57.9157 25.9219H49.793V30.3615H57.9157V25.9219Z" fill="#F4FFF1" stroke="#FF7646" stroke-width="0.269353" stroke-linecap="round" stroke-linejoin="round"/>
<path d="M48.5215 12.1371L54.6352 3.58034C54.9775 3.10356 55.5275 2.82031 56.1139 2.82031H69.6292C69.879 2.82031 70.0249 3.10357 69.879 3.3055L63.7652 11.8623C63.4229 12.339 62.873 12.6223 62.2865 12.6223H48.7712C48.5215 12.6223 48.3756 12.339 48.5215 12.1371Z" fill="#F4FFF1" stroke="#FF7646" stroke-width="0.269353" stroke-linecap="round" stroke-linejoin="round"/>
<path d="M57.0574 2.82031L50.0542 12.6223" stroke="#FF7646" stroke-width="0.269353" stroke-linecap="round" stroke-linejoin="round"/>
<path d="M58.9367 2.82031L51.9307 12.6223" stroke="#FF7646" stroke-width="0.269353" stroke-linecap="round" stroke-linejoin="round"/>
<path d="M60.8133 2.82031L53.8101 12.6223" stroke="#FF7646" stroke-width="0.269353" stroke-linecap="round" stroke-linejoin="round"/>
<path d="M62.6907 2.82031L55.6875 12.6223" stroke="#FF7646" stroke-width="0.269353" stroke-linecap="round" stroke-linejoin="round"/>
<path d="M64.5706 2.82031L57.5674 12.6223" stroke="#FF7646" stroke-width="0.269353" stroke-linecap="round" stroke-linejoin="round"/>
<path d="M66.448 2.82031L59.4448 12.6223" stroke="#FF7646" stroke-width="0.269353" stroke-linecap="round" stroke-linejoin="round"/>
<path d="M68.3273 2.82031L61.3213 12.6223" stroke="#FF7646" stroke-width="0.269353" stroke-linecap="round" stroke-linejoin="round"/>
<path d="M49.1276 17.3594H46.5155C46.1715 17.3594 45.8926 17.6381 45.8926 17.982V21.0221C45.8926 21.366 46.1715 21.6448 46.5155 21.6448H49.1276C49.4716 21.6448 49.7505 21.366 49.7505 21.0221V17.982C49.7505 17.6381 49.4716 17.3594 49.1276 17.3594Z" fill="#F4FFF1" stroke="#FF7646" stroke-width="0.269353" stroke-linecap="round" stroke-linejoin="round"/>
<path d="M55.1603 17.3594H52.5482C52.2042 17.3594 51.9253 17.6381 51.9253 17.982V21.0221C51.9253 21.366 52.2042 21.6448 52.5482 21.6448H55.1603C55.5044 21.6448 55.7832 21.366 55.7832 21.0221V17.982C55.7832 17.6381 55.5044 17.3594 55.1603 17.3594Z" fill="#F4FFF1" stroke="#FF7646" stroke-width="0.269353" stroke-linecap="round" stroke-linejoin="round"/>
<path d="M61.1931 17.3594H58.5809C58.2369 17.3594 57.958 17.6381 57.958 17.982V21.0221C57.958 21.366 58.2369 21.6448 58.5809 21.6448H61.1931C61.5371 21.6448 61.8159 21.366 61.8159 21.0221V17.982C61.8159 17.6381 61.5371 17.3594 61.1931 17.3594Z" fill="#F4FFF1" stroke="#FF7646" stroke-width="0.269353" stroke-linecap="round" stroke-linejoin="round"/>
<path d="M47.8848 51.7035V32.4922" stroke="#FF7646" stroke-width="0.269353" stroke-linecap="round" stroke-linejoin="round"/>
<path d="M49.8735 51.7035V32.4922" stroke="#FF7646" stroke-width="0.269353" stroke-linecap="round" stroke-linejoin="round"/>
<path d="M51.8633 51.7035V32.4922" stroke="#FF7646" stroke-width="0.269353" stroke-linecap="round" stroke-linejoin="round"/>
<path d="M53.8555 51.7035V32.4922" stroke="#FF7646" stroke-width="0.269353" stroke-linecap="round" stroke-linejoin="round"/>
<path d="M55.8447 51.7035V32.4922" stroke="#FF7646" stroke-width="0.269353" stroke-linecap="round" stroke-linejoin="round"/>
<path d="M57.8335 51.7035V32.4922" stroke="#FF7646" stroke-width="0.269353" stroke-linecap="round" stroke-linejoin="round"/>
<path d="M59.8257 51.7035V32.4922" stroke="#FF7646" stroke-width="0.269353" stroke-linecap="round" stroke-linejoin="round"/>
</svg>
