<svg width="330" height="594" viewBox="0 0 330 594" fill="none" xmlns="http://www.w3.org/2000/svg">
<g clip-path="url(#clip0_447_3593)">
<path d="M215.983 318.548H188.976V269.488C188.919 268.993 188.891 268.484 188.891 267.976C188.891 260.497 194.956 254.426 202.441 254.426C209.926 254.426 215.588 260.094 215.969 267.248C215.983 267.488 215.983 267.728 215.983 267.976V318.548Z" fill="#F4FFF1" stroke="#0E2316" stroke-width="1.06023" stroke-miterlimit="10"/>
<mask id="mask0_447_3593" style="mask-type:luminance" maskUnits="userSpaceOnUse" x="188" y="254" width="28" height="65">
<path d="M215.983 318.548H188.976V269.488C188.919 268.993 188.891 268.484 188.891 267.976C188.891 260.497 194.956 254.426 202.441 254.426C209.926 254.426 215.588 260.094 215.969 267.248C215.983 267.488 215.983 267.728 215.983 267.976V318.548Z" fill="white"/>
</mask>
<g mask="url(#mask0_447_3593)">
<path d="M197.628 344.602H170.62V229.008C170.564 228.457 170.536 227.891 170.536 227.326C170.536 218.993 176.6 212.235 184.085 212.235C191.57 212.235 197.232 218.554 197.614 226.52C197.628 226.789 197.628 227.057 197.628 227.333V344.616V344.602Z" fill="#0E2316"/>
</g>
<path d="M167.679 318.549H140.671V269.489C140.615 268.994 140.586 268.485 140.586 267.976C140.586 260.498 146.651 254.426 154.136 254.426C161.621 254.426 167.283 260.095 167.665 267.248C167.679 267.488 167.679 267.729 167.679 267.976V318.549Z" fill="#F4FFF1" stroke="#0E2316" stroke-width="1.06023" stroke-miterlimit="10"/>
<mask id="mask1_447_3593" style="mask-type:luminance" maskUnits="userSpaceOnUse" x="140" y="254" width="28" height="65">
<path d="M167.68 318.549H140.672V269.489C140.616 268.994 140.587 268.485 140.587 267.977C140.587 260.498 146.652 254.427 154.137 254.427C161.622 254.427 167.284 260.095 167.666 267.248C167.68 267.489 167.68 267.729 167.68 267.977V318.549Z" fill="white"/>
</mask>
<g mask="url(#mask1_447_3593)">
<path d="M149.323 344.602H122.316V229.009C122.259 228.457 122.231 227.892 122.231 227.326C122.231 218.993 128.295 212.236 135.781 212.236C143.266 212.236 148.927 218.555 149.309 226.521C149.323 226.789 149.323 227.058 149.323 227.334V344.616V344.602Z" fill="#0E2316"/>
</g>
<path d="M124.486 315.949H203.607C210.489 315.949 216.068 321.528 216.068 328.41V580.66C216.068 587.542 210.489 593.121 203.607 593.121H124.486C117.604 593.121 112.024 587.542 112.024 580.66V328.41C112.024 321.528 117.604 315.949 124.486 315.949Z" fill="#0E2316" stroke="#0E2316" stroke-width="1.06023" stroke-miterlimit="10"/>
<path d="M159.098 315.949H238.219C245.102 315.949 250.681 321.528 250.681 328.41V580.66C250.681 587.542 245.102 593.121 238.219 593.121H159.098C152.216 593.121 146.637 587.542 146.637 580.66V328.41C146.637 321.528 152.216 315.949 159.098 315.949Z" fill="#F4FFF1" stroke="#0E2316" stroke-width="1.06023" stroke-miterlimit="10"/>
<path d="M193.45 370.323H239.832C242.482 370.323 244.525 367.912 244.002 365.311C241.676 353.613 231.35 344.799 218.973 344.799C214.322 344.799 209.961 346.043 206.215 348.213C198.589 352.631 193.457 360.872 193.457 370.323H193.45Z" fill="#0E2316" stroke="#0E2316" stroke-width="1.06023" stroke-miterlimit="10"/>
<path d="M167.926 370.322C167.926 384.416 179.355 395.845 193.449 395.845H208.568C205.939 395.845 203.394 395.449 201.005 394.707C190.601 391.484 183.045 381.779 183.045 370.322C183.045 358.864 190.601 349.159 201.005 345.936C203.394 345.201 205.932 344.798 208.568 344.798H193.449C179.355 344.798 167.926 356.228 167.926 370.322Z" fill="#0E2316" stroke="#0E2316" stroke-width="1.06023" stroke-miterlimit="10"/>
<path d="M183.045 370.322C183.045 381.786 190.601 391.484 201.006 394.707C203.395 395.442 205.932 395.845 208.569 395.845C222.67 395.845 234.092 384.416 234.092 370.322C234.092 356.228 222.67 344.798 208.569 344.798C205.939 344.798 203.395 345.194 201.006 345.936C190.601 349.159 183.045 358.864 183.045 370.322Z" fill="#F4FFF1" stroke="#0E2316" stroke-width="1.06023" stroke-miterlimit="10"/>
<path d="M167.926 370.323H179.249C186.275 370.323 192.792 366.315 195.669 359.904C197.867 354.985 201.578 350.892 206.215 348.213C209.968 346.043 214.322 344.799 218.973 344.799H193.449C179.355 344.799 167.926 356.222 167.926 370.323Z" fill="#F4FFF1" stroke="#0E2316" stroke-width="1.06023" stroke-miterlimit="10"/>
<path d="M193.45 454.534H239.832C242.482 454.534 244.525 452.123 244.002 449.522C241.676 437.824 231.35 429.01 218.973 429.01C214.322 429.01 209.961 430.254 206.215 432.424C198.589 436.842 193.457 445.083 193.457 454.534H193.45Z" fill="#0E2316" stroke="#0E2316" stroke-width="1.06023" stroke-miterlimit="10"/>
<path d="M167.926 454.533C167.926 468.627 179.355 480.056 193.449 480.056H208.568C205.939 480.056 203.394 479.66 201.005 478.918C190.601 475.695 183.045 465.99 183.045 454.533C183.045 443.075 190.601 433.37 201.005 430.147C203.394 429.412 205.932 429.009 208.568 429.009H193.449C179.355 429.009 167.926 440.439 167.926 454.533Z" fill="#0E2316" stroke="#0E2316" stroke-width="1.06023" stroke-miterlimit="10"/>
<path d="M183.045 454.533C183.045 465.997 190.601 475.695 201.006 478.918C203.395 479.653 205.932 480.056 208.569 480.056C222.67 480.056 234.092 468.627 234.092 454.533C234.092 440.439 222.67 429.009 208.569 429.009C205.939 429.009 203.395 429.405 201.006 430.147C190.601 433.37 183.045 443.075 183.045 454.533Z" fill="#F4FFF1" stroke="#0E2316" stroke-width="1.06023" stroke-miterlimit="10"/>
<path d="M167.926 454.534H179.249C186.275 454.534 192.792 450.526 195.669 444.115C197.867 439.196 201.578 435.103 206.215 432.424C209.968 430.254 214.322 429.01 218.973 429.01H193.449C179.355 429.01 167.926 440.432 167.926 454.534Z" fill="#F4FFF1" stroke="#0E2316" stroke-width="1.06023" stroke-miterlimit="10"/>
<path d="M193.45 538.745H239.832C242.482 538.745 244.525 536.335 244.002 533.734C241.676 522.036 231.35 513.222 218.973 513.222C214.322 513.222 209.961 514.466 206.215 516.636C198.589 521.053 193.457 529.295 193.457 538.745H193.45Z" fill="#0E2316" stroke="#0E2316" stroke-width="1.06023" stroke-miterlimit="10"/>
<path d="M167.926 538.744C167.926 552.837 179.355 564.267 193.449 564.267H208.568C205.939 564.267 203.394 563.871 201.005 563.129C190.601 559.906 183.045 550.201 183.045 538.744C183.045 527.286 190.601 517.581 201.005 514.358C203.394 513.623 205.932 513.22 208.568 513.22H193.449C179.355 513.22 167.926 524.65 167.926 538.744Z" fill="#0E2316" stroke="#0E2316" stroke-width="1.06023" stroke-miterlimit="10"/>
<path d="M183.045 538.744C183.045 550.208 190.601 559.906 201.006 563.129C203.395 563.864 205.932 564.267 208.569 564.267C222.67 564.267 234.092 552.837 234.092 538.744C234.092 524.65 222.67 513.22 208.569 513.22C205.939 513.22 203.395 513.616 201.006 514.358C190.601 517.581 183.045 527.286 183.045 538.744Z" fill="#15DDA9" stroke="#0E2316" stroke-width="1.06023" stroke-miterlimit="10"/>
<path d="M167.926 538.745H179.249C186.275 538.745 192.792 534.737 195.669 528.326C197.867 523.407 201.578 519.314 206.215 516.636C209.968 514.466 214.322 513.222 218.973 513.222H193.449C179.355 513.222 167.926 524.644 167.926 538.745Z" fill="#F4FFF1" stroke="#0E2316" stroke-width="1.06023" stroke-miterlimit="10"/>
<path d="M57.1118 192.514H184.297C184.516 192.535 184.749 192.549 184.976 192.549C187.393 192.549 189.485 191.135 190.446 189.085C190.574 188.817 190.687 188.541 190.771 188.266C190.793 188.188 190.821 188.11 190.835 188.025C190.906 187.757 190.962 187.481 190.991 187.212C191.005 187.092 191.012 186.965 191.026 186.838C191.026 186.711 191.04 186.59 191.04 186.463C191.04 186.265 191.026 186.074 191.012 185.877C190.983 185.587 190.934 185.29 190.863 185.014C190.842 184.915 190.814 184.823 190.786 184.731C190.764 184.64 190.729 184.548 190.701 184.456C190.665 184.364 190.637 184.272 190.595 184.187C190.482 183.919 190.354 183.664 190.22 183.417C190.171 183.339 190.121 183.254 190.072 183.176C189.966 183.021 189.86 182.865 189.739 182.717C189.676 182.646 189.619 182.569 189.556 182.498C189.492 182.434 189.436 182.357 189.365 182.293C189.238 182.159 189.096 182.024 188.955 181.904C188.891 181.841 188.814 181.784 188.743 181.72C188.672 181.664 188.587 181.607 188.517 181.551C188.389 181.459 188.255 181.367 188.114 181.282C188.093 181.261 188.064 181.254 188.043 181.24C187.944 181.176 187.845 181.127 187.739 181.077C187.633 181.021 187.534 180.971 187.428 180.922C187.216 180.83 187.004 180.752 186.778 180.681C186.637 180.639 186.488 180.597 186.347 180.568C186.057 180.505 185.753 180.455 185.442 180.427C185.287 180.413 185.138 180.406 184.983 180.406H57.1048C60.448 180.406 63.1552 183.113 63.1552 186.456C63.1552 189.799 60.448 192.507 57.1048 192.507L57.1118 192.514Z" fill="#F4FFF1" stroke="#0E2316" stroke-width="1.06023" stroke-miterlimit="10"/>
<path d="M57.1117 192.507C53.7702 192.507 51.0613 189.798 51.0613 186.456C51.0613 183.115 53.7702 180.406 57.1117 180.406C60.4533 180.406 63.1621 183.115 63.1621 186.456C63.1621 189.798 60.4533 192.507 57.1117 192.507Z" fill="#0E2316" stroke="#0E2316" stroke-width="1.06023" stroke-miterlimit="10"/>
<path d="M169.793 192.514H296.979C297.198 192.535 297.431 192.549 297.657 192.549C300.074 192.549 302.167 191.135 303.128 189.085C303.255 188.817 303.368 188.541 303.453 188.266C303.474 188.188 303.503 188.11 303.517 188.025C303.587 187.757 303.644 187.481 303.672 187.212C303.686 187.092 303.693 186.965 303.708 186.838C303.708 186.711 303.722 186.59 303.722 186.463C303.722 186.265 303.708 186.074 303.693 185.877C303.665 185.587 303.616 185.29 303.545 185.014C303.524 184.915 303.495 184.823 303.467 184.731C303.446 184.64 303.411 184.548 303.382 184.456C303.347 184.364 303.319 184.272 303.276 184.187C303.163 183.919 303.036 183.664 302.902 183.417C302.852 183.339 302.803 183.254 302.753 183.176C302.647 183.021 302.541 182.865 302.421 182.717C302.358 182.646 302.301 182.569 302.237 182.498C302.174 182.434 302.117 182.357 302.047 182.293C301.919 182.159 301.778 182.024 301.637 181.904C301.573 181.841 301.495 181.784 301.425 181.72C301.354 181.664 301.269 181.607 301.198 181.551C301.071 181.459 300.937 181.367 300.795 181.282C300.774 181.261 300.746 181.254 300.725 181.24C300.626 181.176 300.527 181.127 300.421 181.077C300.315 181.021 300.216 180.971 300.11 180.922C299.898 180.83 299.686 180.752 299.46 180.681C299.318 180.639 299.17 180.597 299.028 180.568C298.739 180.505 298.435 180.455 298.124 180.427C297.968 180.413 297.82 180.406 297.664 180.406H169.786C173.13 180.406 175.837 183.113 175.837 186.456C175.837 189.799 173.13 192.507 169.786 192.507L169.793 192.514Z" fill="#F4FFF1" stroke="#0E2316" stroke-width="1.06023" stroke-miterlimit="10"/>
<path d="M120.04 98.46H142.121L143.711 251.875H121.63L120.04 98.46Z" fill="#F4FFF1" stroke="#0E2316" stroke-width="1.06023" stroke-linecap="round" stroke-linejoin="round"/>
<path d="M111.635 98.4609H120.04L121.63 251.876H113.226L111.635 98.4609Z" fill="#0E2316" stroke="#0E2316" stroke-width="1.06023" stroke-miterlimit="10"/>
<path d="M229.313 149.712L124.754 52.1289H7.12471L111.685 149.712H229.313Z" fill="#F4FFF1" stroke="#0E2316" stroke-width="1.06023" stroke-linecap="round" stroke-linejoin="round"/>
<path d="M159.734 143.74L133.398 119.164H86.9249L113.261 143.74H159.734Z" fill="#F4FFF1" stroke="#0E2316" stroke-width="1.06023" stroke-linecap="round" stroke-linejoin="round"/>
<path d="M94.3105 82.6777L67.9745 58.1016H21.5011L47.8372 82.6777H94.3105Z" fill="#F4FFF1" stroke="#0E2316" stroke-width="1.06023" stroke-linecap="round" stroke-linejoin="round"/>
<path d="M127.022 113.213L100.686 88.6299H54.213L80.5491 113.213H127.022Z" fill="#F4FFF1" stroke="#0E2316" stroke-width="1.06023" stroke-linecap="round" stroke-linejoin="round"/>
<path d="M149.514 82.6777L123.178 58.1016H76.6971L103.033 82.6777H149.514Z" fill="#F4FFF1" stroke="#0E2316" stroke-width="1.06023" stroke-linecap="round" stroke-linejoin="round"/>
<path d="M182.226 113.213L155.889 88.6299H109.409L135.745 113.213H182.226Z" fill="#F4FFF1" stroke="#0E2316" stroke-width="1.06023" stroke-linecap="round" stroke-linejoin="round"/>
<path d="M214.93 143.74L188.601 119.164H142.12L168.456 143.74H214.93Z" fill="#F4FFF1" stroke="#0E2316" stroke-width="1.06023" stroke-linecap="round" stroke-linejoin="round"/>
<path d="M148.82 82.6787H102.976" stroke="#0E2316" stroke-width="1.06023" stroke-linecap="round" stroke-linejoin="round"/>
<path d="M140.868 74.4863H94.5432" stroke="#0E2316" stroke-width="1.06023" stroke-linecap="round" stroke-linejoin="round"/>
<path d="M85.9488 66.2949H131.758" stroke="#0E2316" stroke-width="1.06023" stroke-linecap="round" stroke-linejoin="round"/>
<path d="M77.0502 58.1025H122.774" stroke="#0E2316" stroke-width="1.06023" stroke-linecap="round" stroke-linejoin="round"/>
<path d="M93.7949 82.6787H47.9506" stroke="#0E2316" stroke-width="1.06023" stroke-linecap="round" stroke-linejoin="round"/>
<path d="M85.2217 74.4863H39.0451" stroke="#0E2316" stroke-width="1.06023" stroke-linecap="round" stroke-linejoin="round"/>
<path d="M30.4499 66.2949H76.4355" stroke="#0E2316" stroke-width="1.06023" stroke-linecap="round" stroke-linejoin="round"/>
<path d="M22.0249 58.1025H67.749" stroke="#0E2316" stroke-width="1.06023" stroke-linecap="round" stroke-linejoin="round"/>
<path d="M181.617 113.212H135.773" stroke="#0E2316" stroke-width="1.06023" stroke-linecap="round" stroke-linejoin="round"/>
<path d="M173.665 105.021H127.411" stroke="#0E2316" stroke-width="1.06023" stroke-linecap="round" stroke-linejoin="round"/>
<path d="M118.633 96.8203H164.555" stroke="#0E2316" stroke-width="1.06023" stroke-linecap="round" stroke-linejoin="round"/>
<path d="M109.847 88.6279H155.571" stroke="#0E2316" stroke-width="1.06023" stroke-linecap="round" stroke-linejoin="round"/>
<path d="M126.591 113.212H80.7465" stroke="#0E2316" stroke-width="1.06023" stroke-linecap="round" stroke-linejoin="round"/>
<path d="M118.215 105.021H71.8404" stroke="#0E2316" stroke-width="1.06023" stroke-linecap="round" stroke-linejoin="round"/>
<path d="M63.2458 96.8203H109.528" stroke="#0E2316" stroke-width="1.06023" stroke-linecap="round" stroke-linejoin="round"/>
<path d="M54.8208 88.6279H100.545" stroke="#0E2316" stroke-width="1.06023" stroke-linecap="round" stroke-linejoin="round"/>
<path d="M214.371 143.741H168.527" stroke="#0E2316" stroke-width="1.06023" stroke-linecap="round" stroke-linejoin="round"/>
<path d="M206.419 135.549H159.62" stroke="#0E2316" stroke-width="1.06023" stroke-linecap="round" stroke-linejoin="round"/>
<path d="M151.026 127.357H197.309" stroke="#0E2316" stroke-width="1.06023" stroke-linecap="round" stroke-linejoin="round"/>
<path d="M142.601 119.165H188.325" stroke="#0E2316" stroke-width="1.06023" stroke-linecap="round" stroke-linejoin="round"/>
<path d="M159.338 143.741H113.494" stroke="#0E2316" stroke-width="1.06023" stroke-linecap="round" stroke-linejoin="round"/>
<path d="M151.025 135.549H104.806" stroke="#0E2316" stroke-width="1.06023" stroke-linecap="round" stroke-linejoin="round"/>
<path d="M95.9996 127.357H141.837" stroke="#0E2316" stroke-width="1.06023" stroke-linecap="round" stroke-linejoin="round"/>
<path d="M87.5676 119.165H133.299" stroke="#0E2316" stroke-width="1.06023" stroke-linecap="round" stroke-linejoin="round"/>
<path d="M7.12473 52.1289L3.02517 56.5183C-0.473587 60.2715 -0.275673 66.1522 3.47755 69.651L101.245 160.901L111.685 149.72L7.12473 52.1289Z" fill="#F4FFF1" stroke="#0E2316" stroke-width="1.06023" stroke-linecap="round" stroke-linejoin="round"/>
<path d="M229.313 149.711L218.874 160.893H101.245L111.685 149.711H229.313Z" fill="#F4FFF1" stroke="#0E2316" stroke-width="1.06023" stroke-linecap="round" stroke-linejoin="round"/>
<path d="M80.3656 52.2985L184.925 149.889H229.038L124.245 51.9521L80.3656 52.2985Z" fill="#0E2316"/>
<path d="M220.195 46.8691H242.276L243.866 251.875H221.785L220.195 46.8691Z" fill="#F4FFF1" stroke="#0E2316" stroke-width="1.06023" stroke-linecap="round" stroke-linejoin="round"/>
<path d="M211.791 46.8691H220.195L221.785 251.875H213.381L211.791 46.8691Z" fill="#0E2316" stroke="#0E2316" stroke-width="1.06023" stroke-miterlimit="10"/>
<path d="M329.469 98.1228L224.909 0.532227H107.28L211.84 98.1228H329.469Z" fill="#F4FFF1" stroke="#0E2316" stroke-width="1.06023" stroke-linecap="round" stroke-linejoin="round"/>
<path d="M107.28 0.532227L103.18 4.92158C99.6817 8.67479 99.8796 14.5555 103.633 18.0543L201.4 109.305L211.84 98.1228L107.28 0.532227Z" fill="#F4FFF1" stroke="#0E2316" stroke-width="1.06023" stroke-linecap="round" stroke-linejoin="round"/>
<path d="M329.469 98.123L322.012 106.11C320.11 108.146 317.446 109.305 314.654 109.305H201.4L211.84 98.123H329.469Z" fill="#F4FFF1" stroke="#0E2316" stroke-width="1.06023" stroke-linecap="round" stroke-linejoin="round"/>
<path d="M259.89 92.1435L233.561 67.5674H187.08L213.416 92.1435H259.89Z" fill="#F4FFF1" stroke="#0E2316" stroke-width="1.06023" stroke-linecap="round" stroke-linejoin="round"/>
<path d="M194.473 31.0881L168.137 6.50488H121.656L147.992 31.0881H194.473Z" fill="#F4FFF1" stroke="#0E2316" stroke-width="1.06023" stroke-linecap="round" stroke-linejoin="round"/>
<path d="M227.185 61.6152L200.848 37.0391H154.368L180.704 61.6152H227.185Z" fill="#F4FFF1" stroke="#0E2316" stroke-width="1.06023" stroke-linecap="round" stroke-linejoin="round"/>
<path d="M249.669 31.0881L223.333 6.50488H176.852L203.188 31.0881H249.669Z" fill="#F4FFF1" stroke="#0E2316" stroke-width="1.06023" stroke-linecap="round" stroke-linejoin="round"/>
<path d="M282.38 61.6152L256.044 37.0391H209.57L235.906 61.6152H282.38Z" fill="#F4FFF1" stroke="#0E2316" stroke-width="1.06023" stroke-linecap="round" stroke-linejoin="round"/>
<path d="M315.092 92.1435L288.756 67.5674H242.282L268.611 92.1435H315.092Z" fill="#F4FFF1" stroke="#0E2316" stroke-width="1.06023" stroke-linecap="round" stroke-linejoin="round"/>
<path d="M248.977 31.0898H203.132" stroke="#0E2316" stroke-width="1.06023" stroke-linecap="round" stroke-linejoin="round"/>
<path d="M241.024 22.8984H194.699" stroke="#0E2316" stroke-width="1.06023" stroke-linecap="round" stroke-linejoin="round"/>
<path d="M186.105 14.6982H231.914" stroke="#0E2316" stroke-width="1.06023" stroke-linecap="round" stroke-linejoin="round"/>
<path d="M177.206 6.50586H222.931" stroke="#0E2316" stroke-width="1.06023" stroke-linecap="round" stroke-linejoin="round"/>
<path d="M193.95 31.0898H148.106" stroke="#0E2316" stroke-width="1.06023" stroke-linecap="round" stroke-linejoin="round"/>
<path d="M185.377 22.8984H139.2" stroke="#0E2316" stroke-width="1.06023" stroke-linecap="round" stroke-linejoin="round"/>
<path d="M130.605 14.6982H176.591" stroke="#0E2316" stroke-width="1.06023" stroke-linecap="round" stroke-linejoin="round"/>
<path d="M122.18 6.50586H167.904" stroke="#0E2316" stroke-width="1.06023" stroke-linecap="round" stroke-linejoin="round"/>
<path d="M281.772 61.6143H235.928" stroke="#0E2316" stroke-width="1.06023" stroke-linecap="round" stroke-linejoin="round"/>
<path d="M273.82 53.4219H227.573" stroke="#0E2316" stroke-width="1.06023" stroke-linecap="round" stroke-linejoin="round"/>
<path d="M218.788 45.2305H264.71" stroke="#0E2316" stroke-width="1.06023" stroke-linecap="round" stroke-linejoin="round"/>
<path d="M210.002 37.0381H255.733" stroke="#0E2316" stroke-width="1.06023" stroke-linecap="round" stroke-linejoin="round"/>
<path d="M226.746 61.6143H180.902" stroke="#0E2316" stroke-width="1.06023" stroke-linecap="round" stroke-linejoin="round"/>
<path d="M218.378 53.4219H172.003" stroke="#0E2316" stroke-width="1.06023" stroke-linecap="round" stroke-linejoin="round"/>
<path d="M163.401 45.2305H209.684" stroke="#0E2316" stroke-width="1.06023" stroke-linecap="round" stroke-linejoin="round"/>
<path d="M154.976 37.0381H200.7" stroke="#0E2316" stroke-width="1.06023" stroke-linecap="round" stroke-linejoin="round"/>
<path d="M314.526 92.1523H268.682" stroke="#0E2316" stroke-width="1.06023" stroke-linecap="round" stroke-linejoin="round"/>
<path d="M306.574 83.9521H259.783" stroke="#0E2316" stroke-width="1.06023" stroke-linecap="round" stroke-linejoin="round"/>
<path d="M251.181 75.7607H297.464" stroke="#0E2316" stroke-width="1.06023" stroke-linecap="round" stroke-linejoin="round"/>
<path d="M242.756 67.5684H288.48" stroke="#0E2316" stroke-width="1.06023" stroke-linecap="round" stroke-linejoin="round"/>
<path d="M259.5 92.1523H213.656" stroke="#0E2316" stroke-width="1.06023" stroke-linecap="round" stroke-linejoin="round"/>
<path d="M251.181 83.9521H204.962" stroke="#0E2316" stroke-width="1.06023" stroke-linecap="round" stroke-linejoin="round"/>
<path d="M196.155 75.7607H241.992" stroke="#0E2316" stroke-width="1.06023" stroke-linecap="round" stroke-linejoin="round"/>
<path d="M187.73 67.5684H233.454" stroke="#0E2316" stroke-width="1.06023" stroke-linecap="round" stroke-linejoin="round"/>
<path d="M93.6256 272.025H264.803C265.298 272.082 265.821 272.11 266.33 272.11C271.801 272.11 276.522 268.915 278.713 264.272C279.003 263.664 279.251 263.049 279.441 262.413C279.498 262.236 279.555 262.052 279.59 261.876C279.752 261.268 279.88 260.653 279.95 260.031C279.979 259.755 280.007 259.465 280.035 259.19C280.049 258.9 280.063 258.624 280.063 258.334C280.063 257.896 280.035 257.451 279.993 257.013C279.922 256.348 279.816 255.691 279.661 255.055C279.604 254.836 279.547 254.631 279.484 254.419C279.427 254.214 279.357 254.009 279.293 253.797C279.208 253.592 279.145 253.387 279.06 253.189C278.812 252.581 278.523 252.001 278.205 251.45C278.091 251.273 277.985 251.075 277.872 250.899C277.639 250.538 277.392 250.199 277.13 249.867C276.989 249.704 276.855 249.534 276.713 249.372C276.579 249.223 276.437 249.054 276.289 248.905C275.999 248.601 275.681 248.298 275.363 248.022C275.215 247.888 275.045 247.746 274.882 247.612C274.72 247.485 274.536 247.35 274.374 247.223C274.084 247.018 273.78 246.813 273.462 246.615C273.405 246.573 273.349 246.545 273.299 246.516C273.08 246.382 272.847 246.255 272.614 246.142C272.38 246.015 272.147 245.908 271.914 245.795C271.433 245.59 270.953 245.407 270.444 245.244C270.126 245.145 269.793 245.053 269.468 244.983C268.804 244.834 268.132 244.721 267.433 244.664C267.086 244.636 266.747 244.622 266.387 244.622H93.6398C101.203 244.622 107.331 250.75 107.331 258.313C107.331 265.876 101.203 272.004 93.6398 272.004L93.6256 272.025Z" fill="#F4FFF1" stroke="#0E2316" stroke-width="1.06023" stroke-miterlimit="10"/>
<path d="M93.6253 272.026C86.0639 272.026 79.9342 265.897 79.9342 258.335C79.9342 250.774 86.0639 244.644 93.6253 244.644C101.187 244.644 107.316 250.774 107.316 258.335C107.316 265.897 101.187 272.026 93.6253 272.026Z" fill="white" stroke="#0E2316" stroke-width="1.41364" stroke-miterlimit="10"/>
<path d="M93.6253 272.026C86.0639 272.026 79.9342 265.897 79.9342 258.335C79.9342 250.774 86.0639 244.644 93.6253 244.644C101.187 244.644 107.316 250.774 107.316 258.335C107.316 265.897 101.187 272.026 93.6253 272.026Z" fill="#0E2316" stroke="#0E2316" stroke-width="1.06023" stroke-miterlimit="10"/>
</g>
<defs>
<clipPath id="clip0_447_3593">
<rect width="330" height="593.651" fill="white" transform="matrix(-1 0 0 1 330 0)"/>
</clipPath>
</defs>
</svg>
