<svg width="102" height="81" viewBox="0 0 102 81" fill="none" xmlns="http://www.w3.org/2000/svg">
<path d="M97.0954 10.5149C99.2503 10.5149 101 12.2608 101 14.4179V67.8934C101 74.7 95.4817 80.2162 88.6722 80.2162C81.8627 80.2162 76.4297 74.7854 76.3442 68.0516V45.3007C76.3442 41.8974 73.585 39.1393 70.1802 39.1393H47.0337V14.4148C47.0337 12.2608 48.7804 10.5117 50.9384 10.5117H97.0923L97.0954 10.5149Z" fill="#F4FFF1" stroke="#FF71A9" stroke-width="0.253141" stroke-linecap="round" stroke-linejoin="round"/>
<path d="M88.6754 80.2182H47.6919L64.2536 43.6201C64.9878 41.036 67.3641 39.1445 70.1835 39.1445C73.5882 39.1445 76.3474 41.9026 76.3474 45.3059V67.7373C76.3474 67.7911 76.3474 67.8449 76.3474 67.8955C76.3474 67.9461 76.3474 68.003 76.3474 68.0536C76.4329 74.7843 81.9197 80.2182 88.6754 80.2182Z" fill="#FF71A9" stroke="#FF71A9" stroke-width="0.253141" stroke-linecap="round" stroke-linejoin="round"/>
<path d="M70.1833 39.1445C67.3639 39.1445 64.9876 41.036 64.2535 43.6201L54.8335 77.3653C54.362 79.0511 52.8241 80.2182 51.0711 80.2182H4.90777C2.32256 80.2182 0.452482 77.7543 1.14546 75.2651L9.93576 43.7687L9.99588 43.5536C9.99588 43.5536 9.99905 43.5347 10.0022 43.5283C10.7648 40.9948 13.119 39.1509 15.9036 39.1509H70.177L70.1833 39.1445Z" fill="#F4FFF1" stroke="#FF71A9" stroke-width="0.253141" stroke-linecap="round" stroke-linejoin="round"/>
<mask id="mask0_383_4166" style="mask-type:luminance" maskUnits="userSpaceOnUse" x="47" y="10" width="54" height="71">
<path d="M97.0954 10.5149C99.2503 10.5149 101 12.2608 101 14.4179V67.8934C101 74.7 95.4817 80.2162 88.6722 80.2162C81.8627 80.2162 76.4297 74.7854 76.3442 68.0516V45.3007C76.3442 41.8974 73.585 39.1393 70.1802 39.1393H47.0337V14.4148C47.0337 12.2608 48.7804 10.5117 50.9384 10.5117H97.0923L97.0954 10.5149Z" fill="white"/>
</mask>
<g mask="url(#mask0_383_4166)">
<path d="M33.4556 15.0156H113.125" stroke="#FF71A9" stroke-width="0.253141" stroke-linecap="round" stroke-linejoin="round"/>
<path d="M33.4556 19.5156H113.125" stroke="#FF71A9" stroke-width="0.253141" stroke-linecap="round" stroke-linejoin="round"/>
<path d="M33.4556 24.0156H113.125" stroke="#FF71A9" stroke-width="0.253141" stroke-linecap="round" stroke-linejoin="round"/>
<path d="M33.4556 28.5156H113.125" stroke="#FF71A9" stroke-width="0.253141" stroke-linecap="round" stroke-linejoin="round"/>
<path d="M33.4556 33.0156H113.125" stroke="#FF71A9" stroke-width="0.253141" stroke-linecap="round" stroke-linejoin="round"/>
<path d="M33.4556 37.5117H113.125" stroke="#FF71A9" stroke-width="0.253141" stroke-linecap="round" stroke-linejoin="round"/>
<path d="M33.4556 42.0156H113.125" stroke="#FF71A9" stroke-width="0.253141" stroke-linecap="round" stroke-linejoin="round"/>
<path d="M33.4556 46.5156H113.125" stroke="#FF71A9" stroke-width="0.253141" stroke-linecap="round" stroke-linejoin="round"/>
<path d="M33.4556 51.0117H113.125" stroke="#FF71A9" stroke-width="0.253141" stroke-linecap="round" stroke-linejoin="round"/>
<path d="M33.4556 55.5117H113.125" stroke="#FF71A9" stroke-width="0.253141" stroke-linecap="round" stroke-linejoin="round"/>
<path d="M33.4556 60.0156H113.125" stroke="#FF71A9" stroke-width="0.253141" stroke-linecap="round" stroke-linejoin="round"/>
<path d="M33.4556 64.5117H113.125" stroke="#FF71A9" stroke-width="0.253141" stroke-linecap="round" stroke-linejoin="round"/>
<path d="M33.4556 69.0117H113.125" stroke="#FF71A9" stroke-width="0.253141" stroke-linecap="round" stroke-linejoin="round"/>
<path d="M33.4556 73.5156H113.125" stroke="#FF71A9" stroke-width="0.253141" stroke-linecap="round" stroke-linejoin="round"/>
<path d="M33.4556 78.0117H113.125" stroke="#FF71A9" stroke-width="0.253141" stroke-linecap="round" stroke-linejoin="round"/>
</g>
<mask id="mask1_383_4166" style="mask-type:luminance" maskUnits="userSpaceOnUse" x="1" y="39" width="70" height="42">
<path d="M70.1833 39.1445C67.3639 39.1445 64.9876 41.036 64.2535 43.6201L54.8335 77.3653C54.362 79.0511 52.8241 80.2182 51.0711 80.2182H4.90777C2.32256 80.2182 0.452482 77.7543 1.14546 75.2651L9.93576 43.7687L9.99588 43.5536C9.99588 43.5536 9.99905 43.5347 10.0022 43.5283C10.7648 40.9948 13.119 39.1509 15.9036 39.1509H70.177L70.1833 39.1445Z" fill="white"/>
</mask>
<g mask="url(#mask1_383_4166)">
<path d="M-5.64795 40.8164H74.0186" stroke="#FF71A9" stroke-width="0.253141" stroke-linecap="round" stroke-linejoin="round"/>
<path d="M-5.64795 45.3125H74.0186" stroke="#FF71A9" stroke-width="0.253141" stroke-linecap="round" stroke-linejoin="round"/>
<path d="M-5.64795 49.8164H74.0186" stroke="#FF71A9" stroke-width="0.253141" stroke-linecap="round" stroke-linejoin="round"/>
<path d="M-5.64795 54.3164H74.0186" stroke="#FF71A9" stroke-width="0.253141" stroke-linecap="round" stroke-linejoin="round"/>
<path d="M-5.64795 58.8125H74.0186" stroke="#FF71A9" stroke-width="0.253141" stroke-linecap="round" stroke-linejoin="round"/>
<path d="M-5.64795 63.3164H74.0186" stroke="#FF71A9" stroke-width="0.253141" stroke-linecap="round" stroke-linejoin="round"/>
<path d="M-5.64795 67.8164H74.0186" stroke="#FF71A9" stroke-width="0.253141" stroke-linecap="round" stroke-linejoin="round"/>
<path d="M-5.64795 72.3164H74.0186" stroke="#FF71A9" stroke-width="0.253141" stroke-linecap="round" stroke-linejoin="round"/>
<path d="M-5.64795 76.8125H74.0186" stroke="#FF71A9" stroke-width="0.253141" stroke-linecap="round" stroke-linejoin="round"/>
</g>
<mask id="mask2_383_4166" style="mask-type:luminance" maskUnits="userSpaceOnUse" x="47" y="10" width="54" height="71">
<path d="M97.0954 10.5149C99.2503 10.5149 101 12.2608 101 14.4179V67.8934C101 74.7 95.4817 80.2162 88.6722 80.2162C81.8627 80.2162 76.4297 74.7854 76.3442 68.0516V45.3007C76.3442 41.8974 73.585 39.1393 70.1802 39.1393H47.0337V14.4148C47.0337 12.2608 48.7804 10.5117 50.9384 10.5117H97.0923L97.0954 10.5149Z" fill="white"/>
</mask>
<g mask="url(#mask2_383_4166)">
<path d="M62.6146 24.1067C62.6146 25.9444 59.77 27.3108 59.2321 28.9681C58.6751 30.6856 60.1528 33.4595 59.1118 34.8891C58.0613 36.3346 54.9571 35.7779 53.5142 36.8312C52.0713 37.8844 51.66 40.9999 49.9386 41.5566C48.2805 42.0943 46.1067 39.8328 44.2683 39.8328C42.4298 39.8328 40.256 42.0943 38.5979 41.5566C36.9398 41.0189 36.4557 37.8718 35.0223 36.8312C33.5762 35.7811 30.4752 36.3346 29.4247 34.8891C28.3837 33.4595 29.8645 30.6856 29.3045 28.9681C28.7665 27.3108 25.9219 25.9444 25.9219 24.1067C25.9219 22.2691 28.7665 20.9027 29.3045 19.2453C29.8614 17.5278 28.3837 14.754 29.4247 13.3243C30.4752 11.8789 33.5794 12.4355 35.0223 11.3823C36.4525 10.3417 36.8765 7.21355 38.5979 6.65688C40.256 6.11918 42.4298 8.38067 44.2683 8.38067C46.1067 8.38067 48.2805 6.11918 49.9386 6.65688C51.6568 7.21355 52.0808 10.3417 53.5142 11.3823C54.9603 12.4324 58.0613 11.8789 59.1118 13.3243C60.1528 14.754 58.672 17.5278 59.2321 19.2453C59.77 20.9027 62.6146 22.2691 62.6146 24.1067Z" fill="#FF71A9" stroke="#FF71A9" stroke-width="0.253141" stroke-linecap="round" stroke-linejoin="round"/>
</g>
<path d="M55.8241 18.5374C55.8241 20.375 52.9794 21.7414 52.4415 23.3988C51.8846 25.1162 53.3623 27.8901 52.3213 29.3198C51.2707 30.7652 48.1666 30.2086 46.7237 31.2618C45.2934 32.3024 44.8694 35.4305 43.1481 35.9872C41.49 36.5249 39.3162 34.2634 37.4777 34.2634C35.6393 34.2634 33.4654 36.5249 31.8074 35.9872C30.0892 35.4305 29.6652 32.3024 28.2317 31.2618C26.7857 30.2117 23.6847 30.7652 22.6342 29.3198C21.5836 27.8743 23.074 25.1162 22.5139 23.3988C21.976 21.7414 19.1313 20.375 19.1313 18.5374C19.1313 16.6997 21.976 15.3333 22.5139 13.676C23.0708 11.9585 21.5931 9.18462 22.6342 7.75498C23.6847 6.30952 26.7888 6.86619 28.2317 5.81294C29.6746 4.75969 30.086 1.64421 31.8074 1.08754C33.5287 0.530862 35.6393 2.81133 37.4777 2.81133C39.3162 2.81133 41.49 0.549839 43.1481 1.08754C44.8663 1.64421 45.2903 4.77234 46.7237 5.81294C48.1698 6.86303 51.2707 6.30952 52.3213 7.75498C53.3718 9.20043 51.8814 11.9585 52.4415 13.676C52.9794 15.3333 55.8241 16.6997 55.8241 18.5374Z" fill="#FF71A9"/>
<path d="M55.8241 18.5374C55.8241 20.375 52.9794 21.7414 52.4415 23.3988C51.8846 25.1162 53.3623 27.8901 52.3213 29.3198C51.2707 30.7652 48.1666 30.2086 46.7237 31.2618C45.2934 32.3024 44.8694 35.4305 43.1481 35.9872C41.49 36.5249 39.3162 34.2634 37.4777 34.2634C35.6393 34.2634 33.4654 36.5249 31.8074 35.9872C30.0892 35.4305 29.6652 32.3024 28.2317 31.2618C26.7857 30.2117 23.6847 30.7652 22.6342 29.3198C21.5836 27.8743 23.074 25.1162 22.5139 23.3988C21.976 21.7414 19.1313 20.375 19.1313 18.5374C19.1313 16.6997 21.976 15.3333 22.5139 13.676C23.0708 11.9585 21.5931 9.18462 22.6342 7.75498C23.6847 6.30952 26.7888 6.86619 28.2317 5.81294C29.6746 4.75969 30.086 1.64421 31.8074 1.08754C33.5287 0.530862 35.6393 2.81133 37.4777 2.81133C39.3162 2.81133 41.49 0.549839 43.1481 1.08754C44.8663 1.64421 45.2903 4.77234 46.7237 5.81294C48.1698 6.86303 51.2707 6.30952 52.3213 7.75498C53.3718 9.20043 51.8814 11.9585 52.4415 13.676C52.9794 15.3333 55.8241 16.6997 55.8241 18.5374Z" fill="#F4FFF1" stroke="#FF71A9" stroke-width="0.253141" stroke-linecap="round" stroke-linejoin="round"/>
<path d="M37.4746 29.4996C43.5317 29.4996 48.442 24.5914 48.442 18.5369C48.442 12.4824 43.5317 7.57422 37.4746 7.57422C31.4176 7.57422 26.5073 12.4824 26.5073 18.5369C26.5073 24.5914 31.4176 29.4996 37.4746 29.4996Z" fill="#F4FFF1" stroke="#FF71A9" stroke-width="0.253141" stroke-linecap="round" stroke-linejoin="round"/>
<path d="M44.7269 15.163L41.8664 18.1678L36.0726 23.9591C35.8796 24.1521 35.5663 24.1521 35.3702 23.9591L30.2219 18.8067C30.0289 18.6138 30.0289 18.2975 30.2219 18.1045L31.5699 16.7635C31.7629 16.5705 32.0762 16.5705 32.2692 16.7635L35.7151 20.2174L40.5406 15.2484L42.6764 13.1135C42.8695 12.9205 43.1859 12.9205 43.3789 13.1135L44.7206 14.4609C44.9136 14.6538 44.9136 14.9669 44.7206 15.1599L44.7269 15.163Z" fill="#FF71A9" stroke="#FF71A9" stroke-width="0.253141" stroke-linecap="round" stroke-linejoin="round"/>
</svg>
