<svg width="163" height="114" viewBox="0 0 163 114" fill="none" xmlns="http://www.w3.org/2000/svg">
<path d="M32.9683 45.7197H39.4345" stroke="#33180E" stroke-width="0.445584" stroke-linecap="round" stroke-linejoin="round"/>
<path d="M27.5884 94.5381H34.0546" stroke="#33180E" stroke-width="0.445584" stroke-linecap="round" stroke-linejoin="round"/>
<path d="M59.0029 88.9473H65.4692" stroke="#33180E" stroke-width="0.445584" stroke-linecap="round" stroke-linejoin="round"/>
<path d="M56.3823 53.6709H62.8433" stroke="#33180E" stroke-width="0.445584" stroke-linecap="round" stroke-linejoin="round"/>
<path d="M77.6377 40.5107H84.0987" stroke="#33180E" stroke-width="0.445584" stroke-linecap="round" stroke-linejoin="round"/>
<path d="M80.645 58.1914H87.106" stroke="#33180E" stroke-width="0.445584" stroke-linecap="round" stroke-linejoin="round"/>
<path d="M43.6885 78.5234H50.1547" stroke="#33180E" stroke-width="0.445584" stroke-linecap="round" stroke-linejoin="round"/>
<path d="M6.05762 64.8008H12.5239" stroke="#33180E" stroke-width="0.445584" stroke-linecap="round" stroke-linejoin="round"/>
<path d="M0.222656 44.1602H6.68893" stroke="#33180E" stroke-width="0.445584" stroke-linecap="round" stroke-linejoin="round"/>
<path d="M44.9448 105.21H51.4111" stroke="#33180E" stroke-width="0.445584" stroke-linecap="round" stroke-linejoin="round"/>
<path d="M0.222656 108.123H6.68893" stroke="#33180E" stroke-width="0.445584" stroke-linecap="round" stroke-linejoin="round"/>
<path d="M86.7251 36.5049H93.1914" stroke="#33180E" stroke-width="0.445584" stroke-linecap="round" stroke-linejoin="round"/>
<path d="M99.8491 31.959H106.315" stroke="#33180E" stroke-width="0.445584" stroke-linecap="round" stroke-linejoin="round"/>
<path d="M107.567 45.7188H114.033" stroke="#33180E" stroke-width="0.445584" stroke-linecap="round" stroke-linejoin="round"/>
<path d="M102.194 94.5371H108.66" stroke="#33180E" stroke-width="0.445584" stroke-linecap="round" stroke-linejoin="round"/>
<path d="M133.602 88.9463H140.068" stroke="#33180E" stroke-width="0.445584" stroke-linecap="round" stroke-linejoin="round"/>
<path d="M119.549 24.5645H126.016" stroke="#33180E" stroke-width="0.445584" stroke-linecap="round" stroke-linejoin="round"/>
<path d="M130.981 53.6699H137.447" stroke="#33180E" stroke-width="0.445584" stroke-linecap="round" stroke-linejoin="round"/>
<path d="M152.236 40.5098H158.703" stroke="#33180E" stroke-width="0.445584" stroke-linecap="round" stroke-linejoin="round"/>
<path d="M155.245 58.1904H161.711" stroke="#33180E" stroke-width="0.445584" stroke-linecap="round" stroke-linejoin="round"/>
<path d="M118.287 78.5225H124.753" stroke="#33180E" stroke-width="0.445584" stroke-linecap="round" stroke-linejoin="round"/>
<path d="M119.549 105.211H126.016" stroke="#33180E" stroke-width="0.445584" stroke-linecap="round" stroke-linejoin="round"/>
<path d="M67.6553 106.929H74.1215" stroke="#33180E" stroke-width="0.445584" stroke-linecap="round" stroke-linejoin="round"/>
<path d="M151.075 25.5157C151.075 27.5951 149.389 29.2819 147.309 29.2819H127.406C124.08 29.2819 121.386 26.5872 121.386 23.2612C121.386 19.9353 124.08 17.2405 127.406 17.2405C127.741 17.2405 128.07 17.2671 128.388 17.3201C128.388 17.2989 128.388 17.2777 128.388 17.2512C128.388 13.9252 131.083 11.2305 134.408 11.2305C137.554 11.2305 140.137 13.6494 140.408 16.726C140.763 16.6305 141.14 16.5775 141.527 16.5775C143.867 16.5775 145.76 18.4712 145.76 20.8105C145.76 21.2985 145.681 21.76 145.527 22.195C146.057 21.9086 146.667 21.7441 147.309 21.7441C149.389 21.7441 151.075 23.431 151.075 25.5104V25.5157Z" fill="#15DDA9" stroke="#33180E" stroke-width="0.477411" stroke-linecap="round" stroke-linejoin="round"/>
<mask id="mask0_2242_41215" style="mask-type:luminance" maskUnits="userSpaceOnUse" x="121" y="11" width="31" height="19">
<path d="M151.076 25.5157C151.076 27.5951 149.389 29.2819 147.31 29.2819H127.407C124.081 29.2819 121.386 26.5872 121.386 23.2612C121.386 19.9353 124.081 17.2405 127.407 17.2405C127.741 17.2405 128.07 17.2671 128.388 17.3201C128.388 17.2989 128.388 17.2777 128.388 17.2512C128.388 13.9252 131.083 11.2305 134.409 11.2305C137.555 11.2305 140.138 13.6494 140.408 16.726C140.764 16.6305 141.14 16.5775 141.528 16.5775C143.867 16.5775 145.761 18.4712 145.761 20.8105C145.761 21.2985 145.681 21.76 145.527 22.195C146.058 21.9086 146.668 21.7441 147.31 21.7441C149.389 21.7441 151.076 23.431 151.076 25.5104V25.5157Z" fill="white"/>
</mask>
<g mask="url(#mask0_2242_41215)">
<path d="M126.86 13.999C135.453 16.1686 133.411 23.4942 133.411 23.4942C133.411 20.1682 130.716 17.4735 127.39 17.4735L126.86 13.999Z" fill="#33180E"/>
<path d="M142.864 24.8047C142.864 24.8047 147.453 24.1629 146.482 19.8237C146.482 19.8237 145.522 18.1475 145.495 20.9483C145.469 23.7491 142.87 24.8047 142.87 24.8047H142.864Z" fill="#33180E"/>
<path d="M139.219 13.7817L141.325 15.1396C143.214 19.7811 138.174 21.537 138.174 21.537C138.174 21.537 139.904 20.3063 140.142 17.776C140.376 15.2457 139.219 13.7764 139.219 13.7764V13.7817Z" fill="#33180E"/>
<path d="M145.596 29.2814C145.596 29.2814 150.837 28.0614 150.46 23.4464L152.327 23.2607L151.908 33.2705C151.908 33.2705 147.686 31.1327 146.848 30.3477C146.009 29.5626 145.596 29.2761 145.596 29.2761V29.2814Z" fill="#33180E"/>
</g>
<path d="M64.8014 70.6422L20.1953 70.9499L22.5665 68.8864L46.1506 65.6453C47.3388 65.4809 48.5482 65.5339 49.7153 65.7991L65.1675 69.3161L64.7961 70.6422H64.8014Z" fill="#15DDA9" stroke="#33180E" stroke-width="0.477411" stroke-linecap="round" stroke-linejoin="round"/>
<mask id="mask1_2242_41215" style="mask-type:luminance" maskUnits="userSpaceOnUse" x="20" y="65" width="46" height="6">
<path d="M64.801 70.6402L20.1948 70.9479L22.566 68.8844L46.1501 65.6433C47.3383 65.4789 48.5478 65.5319 49.7148 65.7972L65.167 69.3141L64.7957 70.6402H64.801Z" fill="white"/>
</mask>
<g mask="url(#mask1_2242_41215)">
<path d="M18.7685 70.7416C18.7685 70.7416 42.4268 70.4127 60.7329 67.8613C72.1006 66.2752 47.2911 75.277 47.2911 75.277C47.2911 75.277 28.4228 75.8871 25.6114 75.2664C22.8052 74.6458 16.8005 73.1711 15.9676 72.8953C15.1348 72.6194 18.4661 70.5135 18.4661 70.5135L18.7685 70.7416Z" fill="#33180E"/>
</g>
<path d="M63.5228 74.1215C62.8545 74.6838 62.027 75.071 61.1199 75.2089H61.0933C60.8599 75.2461 60.6159 75.262 60.3719 75.262C60.059 75.262 59.7566 75.2355 59.4648 75.1771L59.4914 73.9199H63.5281V74.1162L63.5228 74.1215Z" fill="white" stroke="#33180E" stroke-width="1.06091" stroke-miterlimit="10"/>
<path d="M70.3496 70.6199C70.3496 72.6834 68.6786 74.3596 66.6099 74.3596L59.9897 75.3675C61.5546 75.1235 62.8648 74.1263 63.5438 72.7577C63.8621 72.1158 64.0424 71.3891 64.0424 70.6199C64.0424 69.8508 63.8621 69.1293 63.5438 68.4822C62.8807 67.1507 61.6183 66.1694 60.1064 65.8936L66.6099 66.8802C68.6733 66.8802 70.3496 68.5511 70.3496 70.6199Z" fill="#33180E" stroke="#33180E" stroke-width="0.477411" stroke-linecap="round" stroke-linejoin="round"/>
<path d="M66.307 149.409H59.2466L60.7372 74.9804C61.0289 75.0335 61.3366 75.0653 61.6442 75.0653C61.8883 75.0653 62.1323 75.0494 62.3657 75.0122H62.3922C63.3046 74.869 64.1321 74.4818 64.7952 73.9248L66.307 149.409Z" fill="#15DDA9" stroke="#33180E" stroke-width="0.477411" stroke-linecap="round" stroke-linejoin="round"/>
<path d="M60.7328 74.9854L59.2476 149.408" stroke="#33180E" stroke-width="0.477411" stroke-linecap="round" stroke-linejoin="round"/>
<path d="M62.0647 75.1553L61.6934 149.409" stroke="#33180E" stroke-width="0.477411" stroke-linecap="round" stroke-linejoin="round"/>
<path d="M64.0643 149.408L63.5073 74.7041" stroke="#33180E" stroke-width="0.477411" stroke-linecap="round" stroke-linejoin="round"/>
<path d="M66.3082 149.409L64.7964 73.9248" stroke="#33180E" stroke-width="0.477411" stroke-linecap="round" stroke-linejoin="round"/>
<path d="M64.0422 70.6196C64.0422 71.3887 63.8618 72.1101 63.5436 72.7573C62.8646 74.1259 61.5543 75.1231 59.9895 75.3671H59.963C59.7296 75.4043 59.4856 75.4255 59.2416 75.4255C56.5893 75.4255 54.4409 73.2771 54.4409 70.6249C54.4409 67.9726 56.5946 65.8242 59.2416 65.8242C59.4378 65.8242 59.6288 65.8348 59.8145 65.856L60.0903 65.8985H60.1062C61.618 66.1743 62.8805 67.1557 63.5436 68.4924C63.8618 69.1343 64.0422 69.861 64.0422 70.6302V70.6196Z" fill="#15DDA9" stroke="#33180E" stroke-width="0.477411" stroke-linecap="round" stroke-linejoin="round"/>
<path d="M61.5012 70.6195C61.5012 70.9803 61.4163 71.3197 61.2678 71.6221C60.9495 72.264 60.3289 72.7361 59.5968 72.8475H59.5862C59.3581 72.8846 59.1247 72.8846 58.8807 72.8475C57.8835 72.6883 57.0984 71.8555 56.9976 70.8476C56.865 69.495 57.9206 68.3545 59.2467 68.3545C59.3369 68.3545 59.4271 68.3598 59.5173 68.3704L59.6446 68.3916H59.6552C60.366 68.5242 60.9601 68.9857 61.2731 69.6117C61.4216 69.914 61.5065 70.2535 61.5065 70.6142L61.5012 70.6195Z" fill="#15DDA9" stroke="#33180E" stroke-width="0.477411" stroke-linecap="round" stroke-linejoin="round"/>
<path d="M74.5769 58.3554C74.1207 59.4641 73.4735 60.4879 72.6566 61.3631L65.9675 68.572C65.697 68.0257 65.3257 67.5217 64.8483 67.0921C64.5937 66.864 64.3231 66.6624 64.042 66.4979L82.9793 33.2383L83.5787 36.3255L74.5769 58.3607V58.3554Z" fill="#15DDA9" stroke="#33180E" stroke-width="0.477411" stroke-linecap="round" stroke-linejoin="round"/>
<mask id="mask2_2242_41215" style="mask-type:luminance" maskUnits="userSpaceOnUse" x="64" y="33" width="20" height="36">
<path d="M74.5783 58.3554C74.1221 59.4641 73.475 60.4879 72.6581 61.3631L65.969 68.572C65.6985 68.0257 65.3272 67.5217 64.8497 67.0921C64.5951 66.864 64.3246 66.6624 64.0435 66.4979L82.9808 33.2383L83.5802 36.3255L74.5783 58.3607V58.3554Z" fill="white"/>
</mask>
<g mask="url(#mask2_2242_41215)">
<path d="M83.7067 33.8916C83.7067 33.8916 79.4578 45.4927 72.8271 59.152C71.2092 62.4832 64.9551 67.0982 62.7749 69.411C62.7749 69.411 65.772 71.0819 65.9258 71.2199C66.0797 71.3578 68.0742 69.9786 68.3341 69.8566C68.594 69.7346 75.0868 65.4061 75.0868 65.4061L82.5981 48.3519L87.6746 41.6734L86.8842 37.313L83.7014 33.8916H83.7067Z" fill="#33180E"/>
</g>
<mask id="mask3_2242_41215" style="mask-type:luminance" maskUnits="userSpaceOnUse" x="59" y="73" width="8" height="77">
<path d="M66.3075 149.408H59.2471L60.7377 74.9794C61.0294 75.0325 61.3371 75.0643 61.6447 75.0643C61.8887 75.0643 62.1328 75.0484 62.3662 75.0113H62.3927C63.3051 74.868 64.1326 74.4808 64.7957 73.9238L66.3075 149.408Z" fill="white"/>
</mask>
<g mask="url(#mask3_2242_41215)">
<path d="M65.3679 152.252L64.063 72.1155L65.1663 72.0996L69.8927 101.498C69.8927 101.498 68.3173 121.13 69.2615 131.94C70.2057 142.751 69.9988 149.408 69.9988 149.408L65.3679 152.246V152.252Z" fill="#33180E"/>
</g>
<path d="M86.3375 105.497L83.3616 104.479L68.7422 85.6902C68.0049 84.7407 67.4479 83.6691 67.0925 82.5234L64.4243 73.9299C65.1298 73.6488 65.7823 73.2032 66.3234 72.6038C66.4666 72.45 66.5939 72.2855 66.7106 72.1211L86.3269 105.497H86.3375Z" fill="#15DDA9" stroke="#33180E" stroke-width="0.477411" stroke-linecap="round" stroke-linejoin="round"/>
<mask id="mask4_2242_41215" style="mask-type:luminance" maskUnits="userSpaceOnUse" x="64" y="72" width="23" height="34">
<path d="M86.3375 105.498L83.3616 104.48L68.7422 85.6912C68.0049 84.7416 67.4479 83.6701 67.0925 82.5243L64.4243 73.9309C65.1298 73.6498 65.7823 73.2042 66.3234 72.6048C66.4666 72.4509 66.5939 72.2865 66.7106 72.1221L86.3269 105.498H86.3375Z" fill="white"/>
</mask>
<g mask="url(#mask4_2242_41215)">
<path d="M65.0449 72.6748C65.0449 72.6748 66.0687 76.8495 68.7528 83.4749C70.6466 88.1376 88.7245 106.316 88.7245 106.316C88.7245 106.316 78.7944 104.985 78.683 104.693C78.5716 104.401 65.7557 85.5384 65.7557 85.5384C65.7557 85.5384 63.74 80.4195 63.8249 80.2179C63.9097 80.0163 64.1378 73.6721 64.1378 73.6721L65.0449 72.6748Z" fill="#33180E"/>
</g>
<path d="M58.249 51.3602C58.249 53.498 56.3659 55.2326 54.0372 55.2326H35.9539C34.267 55.2326 32.8984 53.864 32.8984 52.1771C32.8984 50.4903 34.267 49.1164 35.9539 49.1164C36.6275 49.1164 37.2535 49.3339 37.7627 49.7105C37.5771 49.2968 37.471 48.8406 37.471 48.3578C37.471 46.4588 39.0836 44.9205 41.0781 44.9205C42.4467 44.9205 43.6402 45.6472 44.2502 46.724C44.2343 46.5808 44.229 46.4323 44.229 46.2838C44.229 44.0081 46.0803 42.1621 48.356 42.1621C50.6316 42.1621 52.4829 44.0081 52.4829 46.2838C52.4829 46.8567 52.3662 47.403 52.154 47.8963C52.7216 47.6364 53.3582 47.4879 54.0372 47.4879C56.3606 47.4879 58.249 49.2225 58.249 51.3602Z" fill="#15DDA9" stroke="#33180E" stroke-width="0.477411" stroke-linecap="round" stroke-linejoin="round"/>
<mask id="mask5_2242_41215" style="mask-type:luminance" maskUnits="userSpaceOnUse" x="32" y="42" width="27" height="14">
<path d="M58.2485 51.3583C58.2485 53.496 56.3654 55.2306 54.0367 55.2306H35.9534C34.2665 55.2306 32.8979 53.862 32.8979 52.1752C32.8979 50.4883 34.2665 49.1144 35.9534 49.1144C36.6271 49.1144 37.253 49.3319 37.7622 49.7086C37.5766 49.2948 37.4705 48.8386 37.4705 48.3559C37.4705 46.4569 39.0831 44.9185 41.0776 44.9185C42.4462 44.9185 43.6397 45.6453 44.2497 46.7221C44.2338 46.5789 44.2285 46.4303 44.2285 46.2818C44.2285 44.0061 46.0798 42.1602 48.3555 42.1602C50.6311 42.1602 52.4824 44.0061 52.4824 46.2818C52.4824 46.8547 52.3657 47.4011 52.1535 47.8944C52.7211 47.6345 53.3577 47.4859 54.0367 47.4859C56.3601 47.4859 58.2485 49.2205 58.2485 51.3583Z" fill="white"/>
</mask>
<g mask="url(#mask5_2242_41215)">
<path d="M35.624 48.6153C39.7138 48.3819 38.7962 52.3815 38.7962 52.3815C38.7962 50.6947 37.4276 49.3261 35.7407 49.3261L35.624 48.6153Z" fill="#33180E"/>
<path d="M40.9292 42.7383C46.7589 44.4039 44.5363 48.5786 44.5363 48.5786C44.5363 46.6796 42.9237 45.1413 40.9292 45.1413V42.7383Z" fill="#33180E"/>
<path d="M54.7887 45.1416C56.0458 50.2022 49.7546 50.0377 49.7546 50.0377L49.7334 50.0483C51.2134 49.4224 52.2531 47.9583 52.2531 46.2503L54.7887 45.1416Z" fill="#33180E"/>
</g>
<path d="M127.952 50.224L87.3193 87.6318L87.7755 83.7648L106.697 61.162C107.652 60.0215 108.803 59.0667 110.097 58.3347L127.188 48.6963L127.958 50.224H127.952Z" fill="#15DDA9" stroke="#33180E" stroke-width="0.477411" stroke-linecap="round" stroke-linejoin="round"/>
<mask id="mask6_2242_41215" style="mask-type:luminance" maskUnits="userSpaceOnUse" x="87" y="48" width="41" height="40">
<path d="M127.953 50.224L87.3203 87.6318L87.7765 83.7648L106.698 61.162C107.653 60.0215 108.804 59.0667 110.098 58.3347L127.189 48.6963L127.959 50.224H127.953Z" fill="white"/>
</mask>
<g mask="url(#mask6_2242_41215)">
<path d="M86.7417 86.0462C86.7417 86.0462 107.032 70.4614 121.693 52.8821C130.796 41.9653 115.763 69.0504 115.763 69.0504C115.763 69.0504 98.974 85.3142 95.8814 87.0806C92.7889 88.847 86.0627 92.4913 85.0654 92.9369C84.0682 93.3825 86.2749 86.0887 86.2749 86.0887L86.7417 86.0409V86.0462Z" fill="#33180E"/>
</g>
<path d="M127.777 56.1869C126.955 56.8818 125.926 57.3593 124.796 57.5343H124.764C124.473 57.582 124.175 57.6033 123.873 57.6033C123.486 57.6033 123.109 57.5661 122.749 57.5025L122.78 55.9482H127.777V56.1923V56.1869Z" fill="white" stroke="#33180E" stroke-width="1.06091" stroke-miterlimit="10"/>
<path d="M136.232 51.853C136.232 54.4098 134.158 56.4839 131.601 56.4839L123.4 57.7305C125.337 57.4281 126.96 56.1922 127.798 54.5C128.196 53.7043 128.419 52.8025 128.419 51.8583C128.419 50.9141 128.196 50.0123 127.798 49.2167C126.976 47.5669 125.416 46.3522 123.544 46.0127L131.596 47.2327C134.153 47.2327 136.227 49.3068 136.227 51.8636L136.232 51.853Z" fill="#33180E" stroke="#33180E" stroke-width="0.477411" stroke-linecap="round" stroke-linejoin="round"/>
<path d="M177.126 65.3537L173.55 66.892L144.513 61.8368C143.049 61.5822 141.643 61.0623 140.365 60.3091L130.769 54.6491C131.177 53.8056 131.411 52.8561 131.411 51.8483C131.411 51.5883 131.395 51.3337 131.363 51.0791L177.126 65.3431V65.3537Z" fill="#15DDA9" stroke="#33180E" stroke-width="0.477411" stroke-linecap="round" stroke-linejoin="round"/>
<path d="M131.226 149.409H122.484L124.325 57.2526C124.691 57.3216 125.067 57.3534 125.449 57.3534C125.752 57.3534 126.049 57.3322 126.34 57.2897H126.372C127.502 57.1147 128.526 56.6373 129.353 55.9424L131.221 149.409H131.226Z" fill="#15DDA9" stroke="#33180E" stroke-width="0.477411" stroke-linecap="round" stroke-linejoin="round"/>
<path d="M124.323 57.2539L122.482 149.41" stroke="#33180E" stroke-width="0.477411" stroke-linecap="round" stroke-linejoin="round"/>
<path d="M125.973 57.4658L125.512 149.41" stroke="#33180E" stroke-width="0.477411" stroke-linecap="round" stroke-linejoin="round"/>
<path d="M128.451 149.41L127.756 56.9092" stroke="#33180E" stroke-width="0.477411" stroke-linecap="round" stroke-linejoin="round"/>
<path d="M131.224 149.41L129.356 55.9434" stroke="#33180E" stroke-width="0.477411" stroke-linecap="round" stroke-linejoin="round"/>
<mask id="mask7_2242_41215" style="mask-type:luminance" maskUnits="userSpaceOnUse" x="130" y="51" width="48" height="16">
<path d="M177.125 65.3517L173.55 66.8901L144.513 61.8348C143.049 61.5802 141.643 61.0604 140.365 60.3071L130.769 54.6471C131.177 53.8037 131.41 52.8542 131.41 51.8463C131.41 51.5864 131.394 51.3318 131.363 51.0771L177.125 65.3411V65.3517Z" fill="white"/>
</mask>
<g mask="url(#mask7_2242_41215)">
<path d="M130.291 52.9828C130.291 52.9828 134.704 55.9587 142.682 59.7939C148.3 62.4939 180 64.1118 180 64.1118C180 64.1118 169.788 71.1563 169.444 70.9812C169.099 70.8062 141.648 64.1808 141.648 64.1808C141.648 64.1808 135.537 61.1678 135.452 60.9079C135.367 60.6479 130.291 54.6432 130.291 54.6432V52.9775V52.9828Z" fill="#33180E"/>
</g>
<mask id="mask8_2242_41215" style="mask-type:luminance" maskUnits="userSpaceOnUse" x="122" y="55" width="10" height="95">
<path d="M131.224 149.41H122.482L124.323 57.2536C124.689 57.3225 125.065 57.3544 125.447 57.3544C125.75 57.3544 126.047 57.3332 126.338 57.2907H126.37C127.5 57.1157 128.524 56.6383 129.351 55.9434L131.219 149.41H131.224Z" fill="white"/>
</mask>
<g mask="url(#mask8_2242_41215)">
<path d="M130.063 152.925L128.451 53.7034L129.819 53.6875L135.67 90.0875C135.67 90.0875 133.718 114.398 134.89 127.787C136.063 141.176 135.803 149.414 135.803 149.414L130.069 152.931L130.063 152.925Z" fill="#33180E"/>
</g>
<path d="M126.218 30.2631C126.727 31.6582 126.976 33.1329 126.96 34.6235L126.828 46.7975C126.127 46.5216 125.369 46.3678 124.568 46.3678C124.144 46.3678 123.73 46.4102 123.332 46.4898L113.009 0.239258L116.128 2.56796L126.218 30.2631Z" fill="#15DDA9" stroke="#33180E" stroke-width="0.477411" stroke-linecap="round" stroke-linejoin="round"/>
<mask id="mask9_2242_41215" style="mask-type:luminance" maskUnits="userSpaceOnUse" x="113" y="0" width="14" height="47">
<path d="M126.218 30.2631C126.727 31.6582 126.976 33.1329 126.96 34.6235L126.828 46.7975C126.127 46.5216 125.369 46.3678 124.568 46.3678C124.144 46.3678 123.73 46.4102 123.332 46.4898L113.009 0.239258L116.128 2.56796L126.218 30.2631Z" fill="white"/>
</mask>
<g mask="url(#mask9_2242_41215)">
<path d="M114.223 0.239258C114.223 0.239258 119.989 14.4131 125.273 32.4539C126.562 36.8567 125.877 45.4077 125.808 49.3384C125.808 49.3384 128.742 49.2588 128.991 49.2588C129.24 49.2588 129.925 46.336 130.068 46.0071C130.211 45.6782 132.556 36.305 132.556 36.305L125.251 14.4184L124.344 4.06916L119.989 0.727278L114.223 0.244562V0.239258Z" fill="#33180E"/>
</g>
<path d="M128.424 51.8527C128.424 52.8022 128.201 53.6987 127.804 54.4944C126.96 56.1865 125.337 57.4225 123.406 57.7248H123.374C123.082 57.7726 122.785 57.7991 122.483 57.7991C119.2 57.7991 116.537 55.1362 116.537 51.8527C116.537 48.5691 119.2 45.9062 122.483 45.9062C122.722 45.9062 122.96 45.9222 123.194 45.9487L123.533 46.0017H123.555C125.427 46.3465 126.987 47.5613 127.809 49.211C128.207 50.0067 128.429 50.9085 128.429 51.8527H128.424Z" fill="#15DDA9" stroke="#33180E" stroke-width="0.477411" stroke-linecap="round" stroke-linejoin="round"/>
<path d="M125.274 51.8531C125.274 52.2987 125.168 52.7231 124.982 53.0997C124.584 53.8954 123.821 54.4789 122.914 54.6221H122.898C122.616 54.6645 122.325 54.6699 122.028 54.6221C120.792 54.4258 119.821 53.3968 119.694 52.1449C119.529 50.4686 120.839 49.0576 122.479 49.0576C122.59 49.0576 122.701 49.0629 122.813 49.0788L122.972 49.1054H122.982C123.863 49.2698 124.6 49.8374 124.982 50.6172C125.168 50.9938 125.274 51.4128 125.274 51.8637V51.8531Z" fill="#15DDA9" stroke="#33180E" stroke-width="0.477411" stroke-linecap="round" stroke-linejoin="round"/>
<path d="M23.4248 69.9102V86.1528" stroke="#33180E" stroke-width="0.477411" stroke-linecap="round" stroke-linejoin="round"/>
<path d="M32.3299 93.2976C32.3299 97.2442 29.1312 100.443 25.1846 100.443H23.6304C23.9911 100.443 24.3465 100.416 24.6913 100.363C25.0573 100.31 25.4127 100.225 25.7522 100.119C28.6591 99.2122 30.7703 96.5016 30.7703 93.2976C30.7703 90.0936 28.6591 87.3777 25.7522 86.4759C25.4074 86.3698 25.052 86.285 24.6913 86.2319C24.3465 86.1789 23.9911 86.1523 23.6304 86.1523H25.1846C29.1312 86.1523 32.3299 89.351 32.3299 93.2976Z" fill="#33180E" stroke="#33180E" stroke-width="0.477411" stroke-linecap="round" stroke-linejoin="round"/>
<path d="M23.6306 100.443C27.5768 100.443 30.7759 97.2438 30.7759 93.2976C30.7759 89.3514 27.5768 86.1523 23.6306 86.1523C19.6844 86.1523 16.4854 89.3514 16.4854 93.2976C16.4854 97.2438 19.6844 100.443 23.6306 100.443Z" fill="#15DDA9" stroke="#33180E" stroke-width="0.477411" stroke-linecap="round" stroke-linejoin="round"/>
<path d="M23.6306 98.7719C26.6539 98.7719 29.1049 96.3209 29.1049 93.2976C29.1049 90.2742 26.6539 87.8232 23.6306 87.8232C20.6072 87.8232 18.1562 90.2742 18.1562 93.2976C18.1562 96.3209 20.6072 98.7719 23.6306 98.7719Z" fill="#15DDA9" stroke="#33180E" stroke-width="0.477411" stroke-linecap="round" stroke-linejoin="round"/>
<path d="M24.0496 98.756C23.9117 98.7666 23.7738 98.7719 23.6306 98.7719C20.607 98.7719 18.1562 96.3212 18.1562 93.2976C18.1562 90.274 20.607 87.8232 23.6306 87.8232C23.7685 87.8232 23.9117 87.8285 24.0496 87.8392C21.2223 88.0566 18.9944 90.4172 18.9944 93.2976C18.9944 96.1779 21.2223 98.5438 24.0496 98.756Z" fill="#33180E" stroke="#33180E" stroke-width="0.477411" stroke-linecap="round" stroke-linejoin="round"/>
<path d="M22.6392 94.3744V92.7618L21.6208 92.2366C21.5571 92.2048 21.4775 92.2525 21.4775 92.3215V94.5176C21.4775 94.6025 21.5253 94.682 21.6048 94.7245L23.4561 95.6793C23.5198 95.7111 23.5941 95.6634 23.5941 95.5944V95.0109L22.7506 94.5759C22.6764 94.5388 22.6339 94.4593 22.6339 94.3797L22.6392 94.3744Z" fill="#33180E"/>
<path d="M24.2209 94.3809V91.9408L22.7834 91.1982C22.7197 91.1664 22.6401 91.2088 22.6401 91.2831V92.763L23.4783 93.198C23.5525 93.2351 23.6003 93.3147 23.6003 93.4049V95.0122L25.0378 95.7548C25.1015 95.7866 25.181 95.7389 25.181 95.6699V95.0228L24.3376 94.5878C24.2633 94.5507 24.2156 94.4711 24.2156 94.3915L24.2209 94.3809Z" fill="#33180E"/>
<path d="M26.4954 91.9455L24.363 90.8421C24.2993 90.8103 24.2197 90.858 24.2197 90.927V91.9295L25.0632 92.3645C25.1374 92.4016 25.1852 92.4759 25.1852 92.5608V95.0009L26.4795 95.6693C26.5431 95.7011 26.6227 95.6534 26.6227 95.5844V92.1417C26.6227 92.0569 26.575 91.9773 26.5007 91.9402L26.4954 91.9455Z" fill="#33180E"/>
<path d="M114.595 1.56641V26.8374" stroke="#33180E" stroke-width="0.477411" stroke-linecap="round" stroke-linejoin="round"/>
<path d="M125.061 35.3932C125.061 40.1196 121.231 43.9495 116.505 43.9495H114.648C115.083 43.9495 115.508 43.9176 115.922 43.854C116.357 43.7903 116.781 43.6895 117.195 43.5622C120.674 42.4801 123.205 39.2284 123.205 35.3932C123.205 31.558 120.674 28.3063 117.195 27.2241C116.781 27.0968 116.357 26.9961 115.922 26.9324C115.508 26.8687 115.083 26.8369 114.648 26.8369H116.505C121.231 26.8369 125.061 30.6668 125.061 35.3932Z" fill="#33180E" stroke="#33180E" stroke-width="0.477411" stroke-linecap="round" stroke-linejoin="round"/>
<path d="M114.649 43.9495C119.375 43.9495 123.205 40.1187 123.205 35.3932C123.205 30.6677 119.375 26.8369 114.649 26.8369C109.924 26.8369 106.093 30.6677 106.093 35.3932C106.093 40.1187 109.924 43.9495 114.649 43.9495Z" fill="#15DDA9" stroke="#33180E" stroke-width="0.477411" stroke-linecap="round" stroke-linejoin="round"/>
<path d="M114.648 41.9488C118.269 41.9488 121.205 39.0134 121.205 35.3924C121.205 31.7714 118.269 28.8359 114.648 28.8359C111.027 28.8359 108.092 31.7714 108.092 35.3924C108.092 39.0134 111.027 41.9488 114.648 41.9488Z" fill="#15DDA9" stroke="#33180E" stroke-width="0.477411" stroke-linecap="round" stroke-linejoin="round"/>
<path d="M115.152 41.9276C114.988 41.9382 114.818 41.9488 114.648 41.9488C111.031 41.9488 108.092 39.0154 108.092 35.3924C108.092 31.7694 111.025 28.8359 114.648 28.8359C114.818 28.8359 114.982 28.8412 115.152 28.8572C111.768 29.1118 109.1 31.9391 109.1 35.3924C109.1 38.8457 111.763 41.673 115.152 41.9276Z" fill="#33180E" stroke="#33180E" stroke-width="0.477411" stroke-linecap="round" stroke-linejoin="round"/>
<path d="M113.46 36.6864V34.7556L112.245 34.1243C112.166 34.0872 112.076 34.1403 112.076 34.2251V36.8509C112.076 36.957 112.134 37.0472 112.23 37.0949L114.447 38.2407C114.526 38.2778 114.617 38.2248 114.617 38.1399V37.4397L113.609 36.9198C113.519 36.8721 113.465 36.7819 113.465 36.6811L113.46 36.6864Z" fill="#33180E"/>
<path d="M115.355 36.6924V33.7696L113.631 32.8784C113.551 32.8359 113.461 32.8943 113.461 32.9845V34.7615L114.464 35.2814C114.554 35.3291 114.612 35.4246 114.612 35.5307V37.4509L116.336 38.3368C116.416 38.3739 116.506 38.3209 116.506 38.2307V37.4509L115.498 36.9311C115.408 36.8833 115.355 36.7932 115.355 36.6924Z" fill="#33180E"/>
<path d="M118.075 33.7793L115.518 32.4585C115.439 32.416 115.349 32.4744 115.349 32.5646V33.7687L116.357 34.2885C116.447 34.3363 116.5 34.4265 116.5 34.5219V37.4448L118.049 38.2404C118.128 38.2776 118.218 38.2245 118.218 38.1344V34.0127C118.218 33.9119 118.16 33.8164 118.07 33.7687L118.075 33.7793Z" fill="#33180E"/>
</svg>
